<?xml version="1.0" standalone="no"?>
<!DOCTYPE svg PUBLIC "-//W3C//DTD SVG 1.1//EN" "http://www.w3.org/Graphics/SVG/1.1/DTD/svg11.dtd" >
<svg xmlns="http://www.w3.org/2000/svg">
<metadata></metadata>
<defs>
<font id="volkswagen-serial-lightRg" horiz-adv-x="1093" >
<font-face units-per-em="2048" ascent="1638" descent="-410" />
<missing-glyph horiz-adv-x="593" />
<glyph horiz-adv-x="2048" />
<glyph horiz-adv-x="2048" />
<glyph unicode="&#xd;" horiz-adv-x="593" />
<glyph unicode=" "  horiz-adv-x="593" />
<glyph unicode="&#x09;" horiz-adv-x="593" />
<glyph unicode="&#xa0;" horiz-adv-x="593" />
<glyph unicode="!" horiz-adv-x="407" d="M111 61q0 39 26.5 68t63.5 29q41 0 68.5 -28t27.5 -69q0 -37 -27.5 -62.5t-66.5 -25.5q-37 0 -64.5 25.5t-27.5 62.5zM135 487v953q0 31 19.5 50t48.5 19t49 -20.5t20 -50.5v-953q0 -29 -20.5 -49t-50.5 -20q-25 0 -45.5 20.5t-20.5 50.5z" />
<glyph unicode="&#x22;" horiz-adv-x="632" d="M33 1171l4 23l123 268q16 41 76 41q27 0 45 -22.5t18 -57.5l-6 -24l-125 -269q-18 -41 -74 -40q-27 0 -44 23.5t-17 57.5zM291 1171l6 23l121 268q20 41 76 41q27 0 45 -22.5t18 -57.5l-6 -24l-123 -269q-23 -41 -74 -40q-27 0 -45 22.5t-18 58.5z" />
<glyph unicode="#" horiz-adv-x="1294" d="M109 475l18 86h235l74 352h-235l18 86h236l92 439h86l-92 -439h227l92 439h86l-92 -439h236l-19 -86h-235l-76 -352h237l-18 -86h-236l-92 -438h-86l92 438h-227l-92 -438h-86l92 438h-235zM449 561h225l76 352h-228z" />
<glyph unicode="$" horiz-adv-x="972" d="M59 156q0 29 18.5 49t47.5 20q27 0 55 -18l35 -25q8 -6 21 -14q6 -2 32 -14q53 -27 80 -33t88 -6v630l-35 15l-90 35q-63 29 -118 77q-111 100 -111 248q0 141 96 241.5t258 125.5v106q0 37 33 37q18 0 29.5 -11t11.5 -28v-98q90 -8 136 -18.5t99 -38.5q94 -53 95 -101 q0 -18 -15 -41q-20 -31 -51 -30q-14 0 -53 22q-72 45 -107.5 59.5t-103.5 24.5v-500l72 -24q100 -35 159 -70q86 -43 136.5 -129t50.5 -190q0 -182 -121 -326q-55 -61 -116.5 -92t-180.5 -55v-90q0 -39 -37 -39t-37 41v88q-94 0 -148.5 14t-127.5 53q-100 51 -101 105z M233 1130q0 -78 49.5 -133t153.5 -100v467q-86 -14 -144.5 -82t-58.5 -152zM510 119q78 16 108.5 35.5t83.5 85.5q80 92 80 202q0 160 -131 230q-23 10 -48 19.5t-93 29.5v-602z" />
<glyph unicode="%" horiz-adv-x="1511" d="M82 1151q0 156 90 255t229 99q141 0 227.5 -97t86.5 -259q0 -154 -91.5 -253t-230.5 -99q-135 0 -223 100t-88 254zM197 1153q0 -115 55 -192.5t139 -77.5q90 0 147.5 74.5t57.5 193.5q0 123 -52.5 195.5t-142.5 72.5t-147 -74.5t-57 -191.5zM420 27l6 16l549 1430 q12 35 59 34q18 0 34.5 -18.5t16.5 -42.5l-4 -14l-553 -1428q-14 -37 -59 -37q-20 0 -34.5 16.5t-14.5 43.5zM795 311q0 154 89 253.5t226 99.5q154 0 238 -92.5t84 -264.5q0 -152 -89.5 -247t-230.5 -95t-229 96t-88 250zM911 317q0 -121 53.5 -194.5t145.5 -73.5 t146.5 66.5t54.5 181.5q0 283 -197 283q-96 0 -149.5 -70t-53.5 -193z" />
<glyph unicode="&#x26;" horiz-adv-x="1386" d="M90 412q0 145 92 278q45 68 98 112.5t162 110.5l-59 72q-61 74 -85 127t-24 115q0 125 89.5 203.5t232.5 78.5t232.5 -74.5t89.5 -193.5q0 -115 -99 -225q-31 -31 -66.5 -58.5t-105.5 -72.5l369 -443q63 84 86 133q45 94 77.5 131t73.5 37q51 0 52 -69q0 -68 -97 -187 l-108 -151l219 -258q12 -12 12 -35q0 -70 -65 -70q-35 0 -54 21l-192 227l-72 -86q-164 -170 -397 -170q-197 0 -329 128t-132 319zM242 428q0 -139 90 -231.5t229 -92.5q80 0 158 35t133 94q20 20 37 41q27 36 41 54l-406 485q-100 -59 -150 -103t-85 -110 q-47 -82 -47 -172zM414 1237q0 -39 19.5 -78t66.5 -96l61 -76q74 45 99.5 63.5t52.5 43.5q59 55 59 139q0 63 -52 107t-130 44t-127 -40.5t-49 -106.5z" />
<glyph unicode="'" horiz-adv-x="360" d="M20 1171l5 23l120 268q20 41 76 41q27 0 45.5 -22.5t18.5 -57.5l-6 -24l-123 -269q-23 -41 -74 -40q-27 0 -44.5 23.5t-17.5 57.5z" />
<glyph unicode="(" horiz-adv-x="399" d="M111 762q0 299 82 659q27 125 44 158t52 33q25 0 41 -16.5t16 -39.5q0 -18 -8 -36l-31 -146l-28 -162q-41 -229 -41 -450q0 -219 41 -453l28 -162l31 -143q4 -8 5 -17.5t3 -19.5q0 -23 -16.5 -39t-40.5 -16q-43 0 -64 57q-49 168 -81.5 388.5t-32.5 404.5z" />
<glyph unicode=")" horiz-adv-x="399" d="M51 -33l6 37l31 143q72 319 72 613q0 223 -41 452l-31 162l-31 146l-6 36q0 23 16.5 39.5t43.5 16.5q43 0 61 -60q45 -145 79 -373.5t34 -394.5q-6 -84 -10.5 -144t-4.5 -130q0 -74 -10 -141q-14 -72 -18 -97l-39 -170q-14 -63 -25.5 -109t-26 -63.5t-40.5 -17.5 q-23 0 -41.5 16.5t-18.5 38.5z" />
<glyph unicode="*" horiz-adv-x="788" d="M74 1300q0 57 69 58q16 0 31 -10l182 -140l-26 236q0 25 18.5 45t44.5 20q29 0 47.5 -18t18.5 -47l-27 -236l180 140q16 10 33 10q68 0 68 -58q0 -49 -31 -65l-215 -90l209 -90q35 -16 35 -68q0 -55 -66 -55q-18 0 -35 12l-176 131l25 -227q0 -27 -18.5 -47.5 t-47.5 -20.5q-27 0 -45 19.5t-18 48.5l24 227l-178 -131q-12 -12 -33 -12q-68 0 -67 55q0 51 37 68l206 90l-215 90q-31 16 -30 65z" />
<glyph unicode="+" d="M63 702q0 23 17.5 38.5t40.5 15.5h373v370q0 23 16 39.5t39 16.5q53 0 53 -56v-372h375q20 0 36.5 -16.5t16.5 -39.5q0 -53 -57 -53h-371v-379q0 -53 -55 -53q-23 0 -39 14.5t-16 38.5v381h-375q-20 0 -37 16.5t-17 38.5z" />
<glyph unicode="," horiz-adv-x="362" d="M20 -186l5 22l120 268q18 41 76 41q27 0 45.5 -22.5t18.5 -56.5l-4 -23l-125 -268q-23 -43 -74 -43q-27 0 -44.5 23.5t-17.5 58.5z" />
<glyph unicode="-" horiz-adv-x="710" d="M82 537q0 29 16.5 47t40.5 18h424q25 0 45.5 -18.5t20.5 -46.5q0 -29 -18.5 -47.5t-47.5 -18.5h-424q-25 0 -41 18.5t-16 47.5z" />
<glyph unicode="." horiz-adv-x="348" d="M82 66q0 39 24.5 65.5t65.5 26.5q39 0 66.5 -28t27.5 -69q0 -35 -27.5 -60.5t-64.5 -25.5q-35 0 -63.5 27t-28.5 64z" />
<glyph unicode="/" horiz-adv-x="825" d="M57 35l4 22l598 1508q20 47 66 47q16 0 28.5 -18.5t12.5 -43.5l-2 -20l-600 -1514q-14 -45 -64 -45q-18 0 -30.5 18.5t-12.5 45.5z" />
<glyph unicode="0" d="M82 737q0 350 125 554t340 204q211 0 338 -206t127 -552q0 -348 -126 -551.5t-339 -203.5q-211 0 -338 205.5t-127 549.5zM238 733q0 -291 80.5 -459t220.5 -168q145 0 231 169t86 460q0 293 -82 463t-225 170q-147 0 -229 -167t-82 -468z" />
<glyph unicode="1" d="M233 1411q0 25 18.5 45.5t47.5 20.5h274q29 0 49.5 -22.5t20.5 -57.5v-1338q0 -31 -21.5 -54t-48.5 -23q-29 0 -51 22.5t-22 52.5v1291h-205q-29 0 -45.5 16t-16.5 47z" />
<glyph unicode="2" d="M117 1044q0 190 125 321.5t307 131.5q160 0 271.5 -107.5t111.5 -263.5q0 -158 -170 -389l-146 -194l-163 -234l-129 -178h581q72 0 72 -65q0 -25 -18.5 -45.5t-47.5 -20.5h-675q-96 0 -97 66q0 18 4 29t25 38l307 434l98 138q57 84 87 129t53 92q70 125 69 209 q0 94 -67.5 159.5t-169.5 65.5q-111 0 -193 -69.5t-82 -172.5l-6 -100q-10 -74 -71 -74q-76 0 -76 100z" />
<glyph unicode="3" d="M119 322q0 29 20.5 49t50.5 20q29 0 43.5 -13t24.5 -52q68 -209 268 -209q129 0 213 84t84 213q0 119 -72.5 203.5t-181.5 84.5q-47 0 -67 11q-14 4 -24.5 21.5t-10.5 37.5q0 53 51 64l55 8q72 10 119 82.5t47 175.5q0 117 -58 189.5t-153 72.5q-76 0 -128 -49t-66 -135 l-8 -58q-12 -74 -74 -73q-31 0 -50.5 25.5t-19.5 66.5q0 145 102.5 249.5t252.5 104.5q152 0 253 -107.5t101 -273.5q0 -41 -3 -59.5t-16 -67.5q-18 -59 -45.5 -97.5t-99.5 -101.5q39 -20 68.5 -36.5t46.5 -30.5q57 -43 96 -125t39 -162q0 -188 -132 -320t-323 -132 q-174 0 -297 122q-45 45 -75.5 106.5t-30.5 111.5z" />
<glyph unicode="4" d="M59 463q0 16 4.5 27.5t28.5 48.5l533 891q37 66 112 65q59 0 95 -38t36 -103l6 -830h84q72 0 72 -65q0 -25 -23.5 -42.5t-54.5 -17.5h-84l2 -344q0 -31 -19.5 -52t-47.5 -21q-29 0 -50.5 21.5t-21.5 51.5v342h-559l-63 2q-49 8 -50 64zM242 526h489v854z" />
<glyph unicode="5" d="M94 213q0 29 20.5 47.5t51.5 18.5q23 0 32 -5.5t40 -35.5q49 -53 121.5 -86t138.5 -33q131 0 217 106.5t86 270.5q0 141 -78 229t-207 88q-82 0 -160 -41q-45 -23 -53 -22q-14 0 -39.5 16t-25.5 37l8 63l80 527q8 59 22 71.5t78 12.5h430q31 0 53.5 -18.5t22.5 -45.5 q0 -29 -20.5 -47t-53.5 -18h-397l-70 -441q98 39 170 39q172 0 284.5 -127t112.5 -323q0 -215 -130 -363.5t-316 -148.5q-80 0 -168 28.5t-151 75.5q-98 74 -99 125z" />
<glyph unicode="6" d="M127 500q0 326 209 635q100 141 282 327q37 35 64 35q72 0 72 -67q0 -25 -25 -48q-137 -129 -207 -220t-170 -277q139 66 221 65q170 0 282 -134t112 -341q0 -215 -119 -356.5t-301 -141.5q-186 0 -303 145.5t-117 377.5zM274 479q0 -170 72 -268t195 -98q125 0 202.5 92 t77.5 244q0 176 -73.5 276t-202.5 100t-200 -90t-71 -256z" />
<glyph unicode="7" d="M115 1411q0 29 20.5 47.5t50.5 18.5h717q76 0 76 -62l-6 -33l-574 -1359q-23 -43 -73 -43q-25 0 -41.5 20t-16.5 53l4 19l541 1271h-623q-33 0 -54 19.5t-21 48.5z" />
<glyph unicode="8" d="M121 440q0 100 43 199q37 80 80 118.5t143 73.5l-78 62q-53 47 -86 118.5t-33 143.5q0 152 100.5 250t256.5 98t256 -98t100 -250q0 -82 -37 -154q-27 -51 -58.5 -84.5t-100.5 -85.5q80 -27 116 -55q66 -45 108 -139t42 -197q0 -201 -121 -332t-303 -131 q-186 0 -307 130.5t-121 332.5zM276 444q0 -145 76 -239t191 -94q119 0 196.5 92t77.5 235q0 147 -72.5 234.5t-197.5 87.5q-123 0 -197 -86t-74 -230zM326 1145q0 -102 63.5 -174t155.5 -72q96 0 159.5 69.5t63.5 174.5q0 109 -61.5 176t-159.5 67t-159.5 -67.5 t-61.5 -173.5z" />
<glyph unicode="9" d="M127 999q0 215 119 356.5t301 141.5q186 0 303 -145.5t117 -378.5q0 -328 -209 -633q-49 -70 -123 -156t-160 -174q-35 -35 -63 -35q-31 0 -51.5 18.5t-20.5 49.5q0 25 18 41l117 123q80 82 136 164t130 215q-141 -63 -221 -64q-172 0 -282.5 133t-110.5 344zM272 1008 q0 -166 75 -263.5t202 -97.5q125 0 198.5 88t73.5 240q0 184 -71.5 286.5t-198.5 102.5q-129 0 -204 -95t-75 -261z" />
<glyph unicode=":" horiz-adv-x="378" d="M111 66q0 39 26.5 65.5t63.5 26.5q41 0 68.5 -28t27.5 -69q0 -35 -27.5 -60.5t-66.5 -25.5q-35 0 -63.5 27t-28.5 64zM111 770q0 39 26.5 65.5t65.5 26.5t67.5 -26.5t28.5 -65.5t-27.5 -64.5t-68.5 -25.5q-37 0 -64.5 25.5t-27.5 64.5z" />
<glyph unicode=";" horiz-adv-x="411" d="M49 -186l4 22l121 268q18 41 76 41q27 0 46 -23.5t19 -55.5l-6 -23l-125 -268q-23 -43 -73 -43q-27 0 -44.5 23.5t-17.5 58.5zM143 772q0 39 29 65.5t68 26.5q37 0 63.5 -26.5t26.5 -63.5t-25.5 -64.5t-62.5 -27.5q-41 0 -70 24.5t-29 65.5z" />
<glyph unicode="&#x3c;" horiz-adv-x="491" d="M82 547q0 12 18 47l183 319q25 43 67 43q57 0 58 -59q0 -27 -15 -47l-184 -305l182 -307q18 -29 19 -48q0 -23 -18.5 -41t-45.5 -18q-37 0 -65 49l-170 305q-8 14 -25 52q-2 4 -4 10z" />
<glyph unicode="=" d="M61 578q0 23 16.5 39t41.5 16h854q25 0 42 -15.5t17 -37.5q0 -23 -16.5 -39.5t-40.5 -16.5h-858q-23 0 -39.5 14.5t-16.5 39.5zM61 817q0 20 16.5 36.5t41.5 16.5h854q23 0 39 -14t16 -39q0 -16 -8 -31q-16 -27 -45 -26h-858q-23 0 -39.5 16.5t-16.5 40.5z" />
<glyph unicode="&#x3e;" horiz-adv-x="491" d="M82 897q0 23 19.5 40t41.5 17q39 0 68 -49l168 -305q14 -25 27 -51q2 -4 4 -10q0 -14 -21 -47l-180 -322q-25 -41 -68 -41q-57 0 -57 59q0 27 14 48l185 305l-183 307q-18 29 -18 49z" />
<glyph unicode="?" horiz-adv-x="933" d="M53 1206q0 125 113 213t270 88q188 0 302 -101t114 -269q0 -178 -121 -289q-51 -45 -96 -66t-135 -39v-262q0 -29 -18.5 -47t-47.5 -18q-31 0 -51.5 18.5t-20.5 48.5v293v35q4 20 23 39q10 10 22.5 16t57.5 13q233 35 233 262q0 102 -70.5 166.5t-189.5 64.5 q-207 0 -243 -176q-14 -70 -70 -70q-31 0 -51.5 22.5t-20.5 57.5zM344 57q0 39 25.5 67t62.5 28q41 0 67.5 -27t26.5 -68q0 -37 -26.5 -61.5t-65.5 -24.5q-37 0 -63.5 24.5t-26.5 61.5z" />
<glyph unicode="@" horiz-adv-x="1708" d="M119 737q0 264 149 467q94 129 223.5 205t272.5 92q23 4 47.5 4h38.5q270 0 445 -177t175 -458q0 -53 -10 -129q-31 -197 -124 -313.5t-208 -132.5q-10 -2 -32 -2q-78 0 -129 53t-43 127q-12 -41 -41 -74q-74 -86 -170 -86q-47 0 -101 25q-150 70 -149 362l8 74 q20 131 71.5 228.5t125.5 152.5q82 57 157 57q117 0 174 -112l11 -23l18 127l98 -2l-79 -446l-29 -185q-2 -14 -3 -30.5t-1 -24.5q0 -37 10 -74q20 -68 88 -67q14 0 31 6q33 12 55.5 30.5t65.5 71.5q37 43 62.5 112t39.5 165q4 29 6 53.5t2 56.5q0 244 -144.5 396.5 t-371.5 152.5q-55 0 -98 -8q-227 -35 -380 -226.5t-153 -449.5q0 -94 25 -196q57 -225 219 -356.5t365 -131.5q86 0 161.5 20.5t155.5 69.5l102 74q66 55 115 115l47 -54l-53 -59q-121 -123 -255 -183.5t-282 -60.5q-276 0 -473.5 185.5t-230.5 484.5q-2 25 -3 45.5t-1 48.5 zM571 594q0 -37 7.5 -71t19.5 -58q35 -74 119 -74q55 0 96 39q29 27 49.5 63.5t44.5 108.5q10 27 21.5 71t19.5 93l4 22l13 84q6 43 6 78q0 76 -44 125t-102 49q-74 0 -135 -75q-43 -55 -80 -166q-16 -51 -24 -102.5t-11.5 -92.5t-3.5 -94z" />
<glyph unicode="A" horiz-adv-x="1253" d="M27 45q0 25 8 41l487 1313q20 53 41 72.5t58 19.5q49 0 69.5 -16.5t42.5 -75.5l488 -1313l6 -41q0 -65 -60 -65h-2q-47 0 -69 49l-115 299h-709l-114 -299q-23 -49 -68 -49q-63 0 -63 65zM311 449h629l-313 860z" />
<glyph unicode="B" horiz-adv-x="1099" d="M141 70v1339q0 68 78 68h303q170 0 284 -107.5t114 -271.5q0 -37 -8.5 -71t-22.5 -71q-25 -57 -63.5 -90.5t-118.5 -68.5q88 -12 127.5 -28.5t91.5 -68.5q106 -111 106 -264q0 -188 -126 -312t-314 -124h-373q-78 0 -78 70zM281 127h290q131 0 224.5 87t93.5 212 q0 127 -92 215t-226 88h-290v-602zM285 838h186q125 0 213 73.5t88 180.5q0 106 -78 180t-194 74h-215v-508z" />
<glyph unicode="C" horiz-adv-x="1239" d="M82 727q0 344 174 557t457 213q174 0 307 -80q123 -72 123 -141q0 -29 -20.5 -49.5t-47.5 -20.5q-29 0 -69 39l-58 47q-102 74 -237 74q-213 0 -347.5 -175t-134.5 -456t139.5 -452.5t366.5 -171.5q82 0 140.5 18t87 33.5t90.5 62.5q29 27 57 27q68 0 68 -70 q0 -43 -50 -80q-155 -122 -393 -122h-4q-291 0 -470 205.5t-179 541.5z" />
<glyph unicode="D" horiz-adv-x="1298" d="M141 70l2 1341q0 27 21.5 46.5t50.5 19.5h391q266 0 438.5 -207t172.5 -531q0 -338 -170 -538.5t-457 -200.5h-369q-80 0 -80 70zM281 127h299q221 0 351 166t130 450q0 270 -131 438.5t-340 168.5h-309v-1223z" />
<glyph unicode="E" horiz-adv-x="899" d="M141 80v1321q0 33 21.5 54.5t54.5 21.5h512q66 0 66 -66q0 -29 -18.5 -47t-49.5 -18h-438v-545h418q27 0 47 -18.5t20 -45.5q0 -25 -18.5 -45t-46.5 -20h-424v-541h465q27 0 47 -18.5t20 -46.5q0 -29 -18.5 -47.5t-48.5 -18.5h-535q-74 0 -74 80z" />
<glyph unicode="F" horiz-adv-x="823" d="M141 53v1348q0 35 22.5 55.5t61.5 20.5h525q27 0 45 -18.5t18 -45.5q0 -67 -66 -67h-2h-456v-547h405q29 0 48.5 -18.5t19.5 -45.5t-18.5 -45t-49.5 -18h-411v-619q0 -29 -19.5 -50t-46.5 -21q-31 0 -53.5 20.5t-22.5 50.5z" />
<glyph unicode="G" horiz-adv-x="1392" d="M82 717q0 350 180 565t473 215q195 0 379 -108q113 -70 113 -125q0 -29 -21.5 -48.5t-52.5 -19.5q-14 0 -26.5 6t-45.5 33q-172 137 -350 137q-227 0 -362.5 -175t-135.5 -470q0 -283 135.5 -450.5t364.5 -167.5q244 0 367 196q43 74 62.5 161t19.5 239h-273 q-27 0 -47 18t-20 47q0 27 19.5 44t49.5 17h285q78 0 104.5 -29.5t26.5 -119.5q0 -332 -155.5 -516t-438.5 -184q-295 0 -473 200.5t-178 534.5z" />
<glyph unicode="H" horiz-adv-x="1386" d="M141 51v1368q0 31 20.5 51.5t51.5 20.5q29 0 48.5 -21.5t19.5 -50.5v-602h823v602q0 29 20.5 50.5t49.5 21.5q31 0 51 -20.5t20 -51.5v-1368q0 -29 -20.5 -49t-50.5 -20q-29 0 -49.5 20.5t-20.5 48.5v643h-823v-643q0 -29 -18.5 -49t-47.5 -20t-51.5 20.5t-22.5 48.5z " />
<glyph unicode="I" horiz-adv-x="421" d="M141 49v1370q0 29 20.5 51.5t51.5 22.5q27 0 47.5 -22.5t20.5 -51.5v-1370q0 -31 -19.5 -50t-48.5 -19q-31 0 -51.5 20t-20.5 49z" />
<glyph unicode="J" horiz-adv-x="724" d="M-39 133q0 25 15.5 42.5t35.5 17.5q33 0 60 -19l53 -37q61 -47 127 -47q35 0 92 27q53 31 74.5 79t21.5 134v1095q0 29 22.5 49.5t55.5 20.5q27 0 45.5 -20.5t18.5 -51.5v-1069q0 -178 -86 -276t-242 -98q-109 0 -217 63q-76 43 -76 90z" />
<glyph unicode="K" horiz-adv-x="1138" d="M141 53v1372q0 29 18.5 49.5t49.5 20.5q29 0 50.5 -19.5t21.5 -50.5v-583l694 620q29 29 57 29q25 0 45.5 -20.5t20.5 -49.5q0 -27 -25 -49l-661 -590l708 -682q27 -27 27 -57q0 -63 -66 -63q-8 0 -25.5 6t-33.5 18l-739 715v-666q0 -31 -18.5 -51t-47.5 -20 q-31 0 -53.5 20.5t-22.5 50.5z" />
<glyph unicode="L" horiz-adv-x="749" d="M141 0l23 27l-21 59v1333q0 31 20.5 53.5t51.5 22.5q29 0 48.5 -21.5t19.5 -52.5v-1290h389q33 0 55.5 -18.5t22.5 -46.5q0 -25 -20.5 -45.5t-49.5 -20.5h-539z" />
<glyph unicode="M" horiz-adv-x="1740" d="M80 43l4 33l219 1321q10 43 41 70.5t74 27.5q88 0 112 -92l340 -1176l338 1176q29 92 113 92q96 0 117 -98l221 -1321l2 -33q0 -25 -20.5 -43t-49.5 -18q-63 0 -73 67l-191 1292l-389 -1308q-16 -55 -68 -56q-47 0 -69 56l-387 1308l-191 -1292q-10 -67 -74 -67h-2 q-29 0 -48 17t-19 44z" />
<glyph unicode="N" horiz-adv-x="1376" d="M141 55v1368q0 31 22.5 51.5t53.5 20.5q35 0 57 -29l824 -1224v1177q0 33 19.5 54.5t49.5 21.5q29 0 48.5 -21.5t19.5 -52.5v-1372q0 -31 -20.5 -51.5t-49.5 -20.5q-35 0 -57 31l-827 1227v-1180q0 -31 -18.5 -51t-47.5 -20q-31 0 -52.5 21.5t-21.5 49.5z" />
<glyph unicode="O" horiz-adv-x="1415" d="M82 737q0 332 175 544t450 212q274 0 450 -211t176 -545q0 -330 -176 -542.5t-450 -212.5q-276 0 -450.5 210.5t-174.5 544.5zM240 737q0 -291 124.5 -461t342.5 -170q215 0 342 170t127 461q0 289 -127 460t-342 171t-341 -171t-126 -460z" />
<glyph unicode="P" horiz-adv-x="1077" d="M141 53v1348q0 76 95 76h337q201 0 334 -129t133 -326q0 -195 -134 -323t-337 -128h-286v-518q0 -31 -18.5 -51t-49.5 -20q-29 0 -51.5 20.5t-22.5 50.5zM285 700h284q133 0 231.5 94.5t98.5 227.5q0 135 -96 231.5t-234 96.5h-284v-650z" />
<glyph unicode="Q" horiz-adv-x="1419" d="M82 737q0 332 175 544t450 212q279 0 452.5 -211t173.5 -553q0 -145 -22.5 -226.5t-102.5 -228.5l166 -170q20 -20 21 -55q0 -55 -58 -55q-29 0 -49 16l-153 160q-125 -109 -212 -147.5t-214 -38.5q-276 0 -451.5 209.5t-175.5 543.5zM240 737q0 -291 126 -459.5 t343 -168.5q102 0 167.5 30.5t159.5 126.5l-139 144q-16 14 -16 47q0 65 57 65h2q33 0 45 -14l127 -129q39 109 51.5 180.5t12.5 175.5q0 295 -126 464t-343 169q-215 0 -341 -171t-126 -460z" />
<glyph unicode="R" horiz-adv-x="1069" d="M141 53v1350q0 29 22.5 51.5t51.5 22.5h342q190 0 314 -118t124 -300q0 -102 -44 -189.5t-122 -138.5q-57 -41 -115.5 -55t-166.5 -14l-94 2l540 -574q16 -14 17 -43q0 -67 -68 -67h-2q-27 0 -49 22l-608 664v-617q0 -31 -19.5 -50t-48.5 -19q-31 0 -52.5 21.5 t-21.5 51.5zM283 782h299q113 0 190.5 82t77.5 203q0 115 -89 197t-212 82h-266v-564z" />
<glyph unicode="S" horiz-adv-x="972" d="M59 156q0 29 18.5 49t49.5 20q25 0 55 -18l35 -25q43 -31 109.5 -51t119.5 -20q141 0 238.5 97t97.5 238q0 68 -34 125q-25 45 -70 76t-133 62l-113 39q-39 12 -64.5 23t-52.5 24q-233 106 -233 325q0 156 123 264.5t299 108.5q133 0 234.5 -55.5t101.5 -102.5 q0 -18 -15 -41q-20 -31 -51 -30q-14 0 -53 22q-127 80 -219 80q-111 0 -188.5 -69.5t-77.5 -168.5q0 -80 53 -139q37 -45 78 -61q37 -18 92 -41t119 -45q115 -41 161 -66q88 -43 138.5 -128t50.5 -191q0 -205 -135.5 -340t-343.5 -135q-158 0 -287 69q-102 49 -103 105z" />
<glyph unicode="T" horiz-adv-x="872" d="M0 1415q0 33 27 51q14 10 36 11h746q27 0 45 -18.5t18 -47.5t-18 -47t-47 -18h-305v-1291q0 -29 -18.5 -51t-47.5 -22t-51.5 22.5t-22.5 50.5v1293h-301q-25 0 -43 19t-18 48z" />
<glyph unicode="U" horiz-adv-x="1386" d="M141 504v913q0 29 20.5 51.5t51.5 22.5q27 0 47.5 -22.5t20.5 -51.5v-917q0 -106 24.5 -168t91.5 -121q57 -53 134 -82t161 -29q174 0 297 111q66 59 90.5 120.5t24.5 168.5v917q0 31 19.5 52.5t47.5 21.5q29 0 49.5 -22.5t20.5 -51.5v-913q0 -135 -35 -221t-121 -162 q-168 -141 -393 -141q-109 0 -211 36.5t-182 104.5q-86 76 -122 163t-36 220z" />
<glyph unicode="V" horiz-adv-x="1142" d="M20 1423q0 29 20.5 49.5t49.5 20.5q47 0 70 -61l413 -1211l410 1211q18 61 70 61q68 0 67 -70l-4 -34l-467 -1330q-16 -47 -31.5 -62t-44.5 -15q-35 0 -49 14t-30 63l-467 1330z" />
<glyph unicode="W" horiz-adv-x="1662" d="M51 1430q0 63 66 63q63 0 73 -68l201 -1284l371 1297q6 23 26.5 41t42.5 18q23 0 43.5 -16.5t26.5 -42.5l371 -1297l201 1284q10 70 71 70q68 0 68 -65l-2 -33l-221 -1323q-18 -94 -117 -94q-86 0 -107 77l-334 1205l-333 -1205q-20 -77 -107 -77h-2q-98 0 -115 94 l-221 1323z" />
<glyph unicode="X" horiz-adv-x="1218" d="M43 94l481 699l-413 591q-16 29 -17 43q0 25 22.5 45.5t51.5 20.5q35 0 59 -41l381 -559l381 559q29 41 60 41t52 -19.5t21 -48.5q0 -16 -14 -41l-416 -591l484 -699q18 -29 18 -49q0 -29 -29 -51q-20 -14 -41 -14q-31 0 -59 38l-457 664l-454 -664q-28 -38 -60 -38h-2 q-23 0 -39 14q-28 17 -28 49q0 27 18 51z" />
<glyph unicode="Y" horiz-adv-x="1007" d="M10 1427q0 63 68 64q20 0 36.5 -10.5t28.5 -28.5l361 -612l362 612q20 39 64 39q65 0 65 -62q0 -25 -8 -38l-412 -699v-637q0 -73 -69 -73h-2q-72 0 -72 73v637l-409 699q-12 20 -13 36z" />
<glyph unicode="Z" horiz-adv-x="1165" d="M72 82q0 20 14 53l793 1215h-713q-27 0 -45.5 18t-18.5 45t18.5 45.5t45.5 18.5h733l113 -2q27 0 43 -14.5t16 -35.5q0 -31 -29 -71l-800 -1227h780q35 0 56.5 -17.5t21.5 -43.5q0 -29 -20.5 -47.5t-57.5 -18.5h-823q-127 0 -127 82z" />
<glyph unicode="[" horiz-adv-x="436" d="M111 -2v1481q0 27 21.5 47t41.5 20h145q25 0 45.5 -18.5t20.5 -46.5q0 -25 -18.5 -41.5t-47.5 -16.5h-65v-1370h65q27 0 46.5 -17.5t19.5 -39.5q0 -27 -19.5 -46.5t-46.5 -19.5h-145q-25 0 -43 23q-20 18 -20 45z" />
<glyph unicode="\" horiz-adv-x="632" d="M109 1475h110l258 -1475h-110z" />
<glyph unicode="]" horiz-adv-x="436" d="M53 -4q0 25 18.5 41t45.5 16h65v1370h-65q-27 0 -45.5 16.5t-18.5 41.5q0 29 18.5 47t45.5 18h145q10 0 20.5 -5t27 -20.5t16.5 -41.5v-1481q0 -27 -21 -45q-18 -23 -43 -23h-145q-27 0 -45.5 18.5t-18.5 47.5z" />
<glyph unicode="^" horiz-adv-x="620" d="M-2 1239q0 59 47 76l223 88l41 14l43 -14l226 -84q45 -16 45 -78q0 -27 -25 -45t-57 -18l-25 6l-207 84l-211 -84q-4 -2 -22 -4q-33 0 -55.5 16t-22.5 43z" />
<glyph unicode="_" horiz-adv-x="1032" d="M109 0h737v-51h-737v51z" />
<glyph unicode="`" horiz-adv-x="434" d="M-4 1372q0 23 22.5 41.5t55.5 18.5l18 -5l295 -114q49 -18 49 -78q0 -25 -22.5 -41t-55.5 -16l-20 4l-295 116q-47 16 -47 74z" />
<glyph unicode="a" horiz-adv-x="1148" d="M82 545q0 244 131 403.5t332 159.5q102 0 167.5 -31t153.5 -121v80q0 31 21.5 52.5t52.5 21.5q29 0 48.5 -19.5t19.5 -50.5v-991q0 -29 -20.5 -49t-49.5 -20q-31 0 -52.5 23.5t-21.5 55.5v101q-76 -102 -142.5 -140t-172.5 -38q-203 0 -335 158.5t-132 404.5zM233 547 q0 -205 86.5 -326t233.5 -121q321 0 321 454q0 128 -16 195.5t-63 129.5q-85 112 -230 112q-154 0 -243 -119.5t-89 -324.5z" />
<glyph unicode="b" horiz-adv-x="1146" d="M141 51v1473q0 29 20.5 49t53.5 20q27 0 47.5 -20.5t20.5 -48.5v-588q88 100 156.5 136t168.5 36q199 0 328 -157.5t129 -403.5q0 -250 -128 -408.5t-331 -158.5q-117 0 -180 32.5t-145 134.5v-96q0 -31 -19.5 -52.5t-48.5 -21.5q-31 0 -51.5 20.5t-20.5 53.5zM281 547 q0 -197 57 -297q86 -141 260 -141q147 0 231 115.5t84 318.5q0 201 -86 320.5t-231 119.5q-162 0 -246 -133q-69 -107 -69 -298v-5z" />
<glyph unicode="c" horiz-adv-x="905" d="M82 545q0 246 137 405.5t354 159.5q111 0 191 -34t80 -81q0 -29 -20.5 -51t-51.5 -22q-20 0 -35 8l-30 16q-74 35 -136 35q-150 0 -241.5 -116.5t-91.5 -309.5q0 -190 93 -314t238 -124q39 0 74 12l39 16l39 17l33 14l12 4q31 0 51.5 -18.5t20.5 -48.5q0 -53 -79 -91 t-192 -38q-219 0 -352 154.5t-133 406.5z" />
<glyph unicode="d" horiz-adv-x="1150" d="M82 543q0 246 133 405.5t340 159.5q106 0 168.5 -34.5t146.5 -145.5v596q0 29 20.5 49t53.5 20q25 0 45.5 -20.5t20.5 -48.5v-1471q0 -31 -20.5 -51t-49.5 -20q-31 0 -52.5 25.5t-21.5 58.5v100q-66 -78 -108 -113q-85 -69 -215 -69h-4q-195 0 -326 159.5t-131 399.5z M233 535q0 -190 85 -304t225 -114q84 0 155.5 39t116.5 112q29 47 41 101.5t12 142.5q0 219 -57 319q-41 68 -108.5 107t-147.5 39q-141 0 -231.5 -119t-90.5 -305v-18z" />
<glyph unicode="e" horiz-adv-x="1089" d="M82 549q0 240 135 399.5t340 159.5q252 0 377 -213q37 -63 61.5 -157.5t24.5 -170.5q0 -49 -20.5 -65.5t-81.5 -16.5h-678q18 -123 55 -202q33 -78 110.5 -125t176.5 -47q141 0 243 92l56 49q29 25 55 24q29 0 49.5 -20t20.5 -49q0 -49 -88 -117q-153 -110 -333 -110h-3 q-223 0 -361.5 156.5t-138.5 412.5zM238 602h632q-20 145 -59 219q-84 162 -256 162q-76 0 -141.5 -36.5t-106.5 -104.5q-33 -55 -46 -99.5t-23 -140.5z" />
<glyph unicode="f" horiz-adv-x="491" d="M8 1034q0 25 16.5 41.5t38.5 16.5h107v301q0 94 52 148t145 54h82q37 0 62.5 -18t25.5 -45q0 -29 -21.5 -48.5t-52.5 -19.5l-51 4h-15q-47 0 -67 -20q-10 -14 -12.5 -36.5t-2.5 -55.5v-33v-231h131q29 0 49.5 -16.5t20.5 -43.5t-19.5 -44t-47.5 -17h-134v-918 q0 -29 -22.5 -51t-50.5 -22q-27 0 -47.5 21.5t-20.5 51.5v918h-111q-23 0 -39 18.5t-16 44.5z" />
<glyph unicode="g" horiz-adv-x="1144" d="M82 528q0 250 132 413t337 163q102 0 165.5 -33t151.5 -135v102q0 29 20.5 51.5t49.5 22.5t47.5 -20.5t18.5 -51.5v-1013q0 -109 -25 -186t-84 -142.5t-163.5 -108.5t-211.5 -43q-164 0 -303 86q-104 59 -104 113q0 31 22.5 51.5t57.5 20.5q20 0 47 -25 q139 -117 288 -117q90 0 172 43t121 111q29 53 39 97t10 134l-2 84q-84 -102 -152.5 -138t-176.5 -36q-201 0 -329 155t-128 402zM236 549q0 -211 85 -329t236 -118q152 0 250 131q35 49 49 102.5t14 147.5v43l-6 168q0 115 -91 200t-212 85q-152 0 -238.5 -115.5 t-86.5 -314.5z" />
<glyph unicode="h" horiz-adv-x="1112" d="M141 47v1473q0 31 21.5 50t52.5 19q29 0 47.5 -20.5t18.5 -48.5v-568q37 47 60.5 67.5t64.5 41.5q84 43 169 43q168 0 289 -121q106 -106 107 -297v-637q0 -31 -20.5 -51.5t-51.5 -20.5q-29 0 -49.5 20.5t-20.5 49.5v651q0 115 -76.5 198t-187.5 83q-119 0 -201.5 -81 t-82.5 -196v-655q0 -67 -64 -67h-2q-31 0 -52.5 19t-21.5 48z" />
<glyph unicode="i" horiz-adv-x="428" d="M119 1339q0 41 28.5 70t71.5 29q35 0 61.5 -29t26.5 -70q0 -39 -24.5 -65.5t-65.5 -26.5t-69.5 26.5t-28.5 65.5zM143 53v987q0 29 20.5 49.5t53.5 20.5q29 0 47.5 -20.5t18.5 -49.5v-987q0 -31 -18.5 -51t-49.5 -20t-51.5 20.5t-20.5 50.5z" />
<glyph unicode="j" horiz-adv-x="419" d="M113 1339q0 43 26.5 72t69.5 29q37 0 64.5 -30t27.5 -71q0 -39 -26.5 -65.5t-65.5 -26.5t-67.5 26.5t-28.5 65.5zM139 -375v1413q0 33 20.5 53.5t51.5 20.5q29 0 47 -20.5t18 -51.5v-1415q0 -27 -18 -47t-47 -20q-31 0 -51.5 18t-20.5 49z" />
<glyph unicode="k" horiz-adv-x="933" d="M141 55v1473q0 31 20.5 51t53.5 20q27 0 46.5 -21.5t19.5 -51.5v-815l467 374q39 27 55 27q27 0 46 -19.5t19 -48.5t-32 -57l-474 -362l539 -521q27 -23 27 -55q0 -29 -19.5 -48t-50.5 -19q-27 0 -61 36l-516 510v-475q0 -71 -64 -71h-2q-31 0 -52.5 21.5t-21.5 51.5z " />
<glyph unicode="l" horiz-adv-x="421" d="M141 55v1471q0 29 20.5 49t49.5 20t49.5 -20.5t20.5 -48.5v-1467q0 -33 -19.5 -56t-48.5 -23q-31 0 -51.5 20t-20.5 55z" />
<glyph unicode="m" horiz-adv-x="1718" d="M141 53v985q0 29 21.5 50.5t50.5 21.5q27 0 47.5 -22.5t20.5 -51.5v-65q53 74 117.5 107.5t152.5 33.5q80 0 151 -37q61 -29 92 -59.5t68 -108.5q18 33 33 54q8 12 31 38q41 47 116.5 78t153.5 31q166 0 285 -113q63 -61 79.5 -105t16.5 -163v-674q0 -71 -64 -71h-2 q-29 0 -49 20.5t-20 50.5v676q0 104 -68.5 179t-163.5 75q-117 0 -197.5 -73.5t-80.5 -180.5v-676q0 -31 -18.5 -51t-49.5 -20q-29 0 -49 20.5t-20 50.5v676q0 104 -76 180t-182 76q-109 0 -182.5 -73.5t-73.5 -182.5v-676q0 -31 -19.5 -52t-46.5 -21q-31 0 -52.5 21.5 t-21.5 51.5z" />
<glyph unicode="n" horiz-adv-x="1112" d="M141 47v993q0 31 20.5 51.5t53.5 20.5q27 0 47.5 -22.5t20.5 -51.5v-82q35 45 57 65.5t63 41t87.5 33t84.5 12.5q168 0 289 -121q59 -61 83 -127.5t24 -173.5v-637q0 -31 -20.5 -51.5t-51.5 -20.5q-29 0 -49.5 20.5t-20.5 49.5v651q0 115 -76.5 198t-187.5 83 q-119 0 -201.5 -81t-82.5 -196v-655q0 -67 -64 -67h-2q-31 0 -52.5 19t-21.5 48z" />
<glyph unicode="o" horiz-adv-x="1103" d="M82 545q0 244 134 404.5t337 160.5t336 -159.5t133 -405.5q0 -242 -133 -403.5t-336 -161.5t-337 160.5t-134 404.5zM236 545q0 -201 87 -321t230 -120q141 0 229 121t88 320q0 197 -88 318.5t-229 121.5t-229 -122t-88 -318z" />
<glyph unicode="p" horiz-adv-x="1146" d="M141 -379v1415q0 29 18.5 51.5t47.5 22.5t51.5 -22.5t22.5 -53.5v-102q84 102 153.5 140t171.5 38q201 0 330 -155.5t129 -399.5q0 -252 -130 -412.5t-335 -160.5q-104 0 -169.5 35t-149.5 135v-531q0 -31 -19.5 -50.5t-48.5 -19.5t-50.5 19.5t-21.5 50.5zM270 526 q0 -96 16.5 -160.5t53.5 -121.5q96 -135 250 -135q147 0 237.5 120.5t90.5 323.5q0 199 -87.5 316.5t-232.5 117.5q-80 0 -152.5 -39.5t-113.5 -105.5q-61 -104 -62 -316z" />
<glyph unicode="q" horiz-adv-x="1148" d="M82 545q0 242 133 403.5t334 161.5q100 0 165.5 -35t151.5 -135v94q0 31 20.5 53.5t53.5 22.5q29 0 48.5 -19.5t19.5 -50.5v-1417q0 -29 -20.5 -50.5t-49.5 -21.5t-48.5 21.5t-19.5 50.5v537q-84 -102 -151.5 -139t-175.5 -37q-195 0 -328 161.5t-133 399.5zM236 553 q0 -205 83.5 -324.5t229.5 -119.5q84 0 155.5 40.5t114.5 116.5q33 55 45.5 109.5t12.5 142.5q0 127 -14.5 196.5t-53.5 131.5q-94 139 -258 139q-147 0 -231 -115.5t-84 -316.5z" />
<glyph unicode="r" horiz-adv-x="522" d="M141 49v985q0 31 21.5 50.5t52.5 19.5q29 0 49.5 -22.5t20.5 -53.5l-9 -117q37 80 66 117t70 64q37 20 69 20q37 0 61.5 -22.5t24.5 -55.5q0 -31 -17.5 -48t-60.5 -32q-113 -41 -159.5 -132t-46.5 -271l-4 -502q0 -29 -18.5 -49t-45.5 -20q-29 0 -51.5 20t-22.5 49z" />
<glyph unicode="s" horiz-adv-x="913" d="M51 193q0 29 20.5 51t45.5 22q20 0 37.5 -11t56.5 -46q104 -98 246 -98q102 0 172.5 54t70.5 136q0 104 -186 182l-100 39q-190 80 -255 138.5t-65 150.5q0 127 103.5 213t259.5 86q129 0 268 -70q94 -47 94 -106q0 -27 -18.5 -47.5t-46.5 -20.5q-16 0 -30.5 6.5 t-39.5 24.5q-117 84 -229 84q-94 0 -152.5 -44t-58.5 -114q0 -35 7 -50t37.5 -37.5t69.5 -42t113 -46.5q209 -80 292 -156.5t83 -189.5q0 -133 -115 -225t-285 -92q-72 0 -132 16t-132 57q-131 74 -131 136z" />
<glyph unicode="t" horiz-adv-x="475" d="M16 1030q0 27 19.5 44.5t48.5 17.5h90v262q0 33 20.5 55.5t49.5 22.5t50 -21.5t21 -54.5v-264h95q25 0 45 -18.5t20 -45.5q0 -25 -19.5 -41t-47.5 -16h-93v-918q0 -31 -20.5 -51t-48.5 -20q-29 0 -49.5 20.5t-20.5 48.5v920h-94q-27 0 -46.5 17.5t-19.5 41.5z" />
<glyph unicode="u" horiz-adv-x="1118" d="M141 401v635q0 31 21.5 52.5t52.5 21.5q27 0 46.5 -21.5t19.5 -52.5v-637q0 -150 74.5 -221.5t205.5 -71.5q125 0 205 74q72 63 72 219v637q0 31 19.5 52.5t45.5 21.5q29 0 51.5 -22.5t22.5 -51.5v-635q0 -121 -21.5 -183t-83.5 -124q-116 -112 -308 -112h-3 q-197 0 -315 112q-59 57 -82 122t-23 185z" />
<glyph unicode="v" horiz-adv-x="866" d="M23 1036q0 29 20 50.5t49 21.5q47 0 66 -53l278 -819l275 819q16 53 61 53q31 0 52.5 -21.5t21.5 -50.5l-4 -20l-338 -983q-18 -51 -70 -51q-53 0 -72 51l-337 983z" />
<glyph unicode="w" horiz-adv-x="1548" d="M23 1036q0 31 19 52.5t48 21.5q59 0 74 -49l268 -848l260 823q27 76 78 76q59 0 84 -76l262 -823l268 848q14 49 72 49q29 0 49.5 -22.5t20.5 -51.5l-2 -20l-322 -957q-16 -47 -32.5 -63t-51.5 -16q-57 0 -82 75l-264 828l-260 -828q-25 -75 -81 -75h-1q-39 0 -53.5 14 t-30.5 65l-321 957z" />
<glyph unicode="x" horiz-adv-x="952" d="M39 100l350 484l-309 415q-14 23 -14 43q0 29 20 49.5t49 20.5q33 0 66 -47l274 -375l275 375q37 47 67 47q27 0 47.5 -20.5t20.5 -49.5q0 -25 -13 -43l-309 -415l348 -484q16 -18 17 -49q0 -67 -64 -67h-2q-37 0 -67 41l-320 448l-317 -448q-31 -41 -66 -41 q-67 0 -67 65q0 31 14 51z" />
<glyph unicode="y" horiz-adv-x="866" d="M20 1038q0 29 20.5 50.5t49.5 21.5q55 0 70 -51l274 -834l260 824q20 61 72 61q31 0 50.5 -19.5t19.5 -50.5q-2 -18 -5 -22l-471 -1399q-23 -65 -70 -65h-1q-31 0 -51.5 18t-20.5 45l6 29l137 377l-335 993z" />
<glyph unicode="z" horiz-adv-x="903" d="M61 66q0 23 17 47l571 850h-489q-33 0 -54.5 17t-21.5 46t20.5 47.5t53.5 18.5h604q78 0 78 -64q0 -18 -17 -47l-571 -852h532q33 0 55.5 -18.5t22.5 -47.5q0 -27 -22.5 -45t-55.5 -18h-649q-74 0 -74 66z" />
<glyph unicode="{" horiz-adv-x="661" d="M109 737q55 0 89.5 41t34.5 105v690q0 127 156 127h115v-64h-23q-76 0 -98.5 -24.5t-22.5 -102.5v-616q0 -63 -36.5 -106.5t-98.5 -49.5q57 -6 96 -49t39 -106v-617q0 -80 21.5 -103.5t99.5 -23.5h23v-63h-115q-78 0 -117 32.5t-39 94.5v690q0 98 -77 133q-16 8 -47 12z " />
<glyph unicode="|" horiz-adv-x="354" d="M109 0v1475h110v-1475h-110z" />
<glyph unicode="}" horiz-adv-x="661" d="M109 -162h22q76 0 98.5 24.5t22.5 102.5v617q0 63 37 106t96 49q-59 6 -96 49t-37 107v616q0 78 -22.5 102.5t-98.5 24.5h-22v64h114q154 0 154 -127v-690q0 -63 34.5 -104.5t92.5 -41.5q-33 -4 -47 -12q-80 -35 -80 -133v-690q0 -127 -154 -127h-114v63z" />
<glyph unicode="~" horiz-adv-x="786" d="M51 1647q0 35 22.5 57t59.5 22h473q37 0 59.5 -22.5t22.5 -58.5q0 -31 -24.5 -53.5t-59.5 -22.5h-469q-35 0 -59.5 22.5t-24.5 55.5z" />
<glyph unicode="&#xa1;" horiz-adv-x="407" d="M111 1419q0 37 26.5 63.5t65.5 26.5t66.5 -25.5t27.5 -64.5q0 -41 -27.5 -66.5t-68.5 -25.5q-37 0 -63.5 26.5t-26.5 65.5zM135 43v952q0 29 18.5 49.5t47.5 20.5q72 0 71 -66v-954q0 -31 -20.5 -51.5t-48.5 -20.5q-27 0 -47.5 20.5t-20.5 49.5z" />
<glyph unicode="&#xa2;" horiz-adv-x="905" d="M82 545q0 129 41 239.5t119 190.5q49 49 92 73.5t131 51.5v147q0 33 35 33q37 0 37 -39v-129h12q100 0 141 -8t97.5 -39t56.5 -70q0 -29 -20.5 -51t-51.5 -22q-18 0 -35 8l-28 16q-33 16 -63 25.5t-54 9.5l-55 -4l-2 -852l110 4l39 16l41 17l31 14l12 4q31 0 50.5 -19.5 t19.5 -47.5q0 -41 -43 -74q-82 -51 -260 -51v-121q0 -39 -37 -39q-14 0 -24.5 10t-10.5 29v129q-102 27 -154.5 58.5t-101.5 97.5q-125 160 -125 393zM240 561q0 -90 22.5 -173t65.5 -144q20 -33 51 -55.5t86 -47.5v822q-49 -20 -80 -41t-49 -43q-43 -51 -69.5 -138.5 t-26.5 -179.5z" />
<glyph unicode="&#xa3;" horiz-adv-x="1206" d="M66 737q0 27 21.5 46.5t51.5 19.5h193l-29 51q-55 100 -73.5 157.5t-18.5 131.5q0 162 122 265t310 103q131 0 234.5 -57t169.5 -164q23 -37 40 -82t17 -69q0 -31 -20.5 -51.5t-49.5 -20.5l-18 2q-23 6 -33 21.5t-29 68.5q-35 98 -119.5 156.5t-197.5 58.5 q-123 0 -200 -68.5t-77 -177.5q0 -90 43 -174l46 -90l26 -57h254q35 0 56.5 -17.5t21.5 -46.5q0 -27 -21.5 -46t-54.5 -19h-215q10 -47 15.5 -78t5.5 -61q0 -41 -3.5 -60.5t-17.5 -68.5q-23 -76 -58.5 -131.5t-121.5 -147.5h731q31 0 52.5 -19.5t21.5 -45.5 q0 -29 -20.5 -47.5t-49.5 -18.5h-858q-31 0 -51.5 20.5t-20.5 53.5q0 25 35 59l57 57q74 72 119 168.5t45 180.5q0 39 -7 71.5t-13 65.5h-240q-27 0 -49 18.5t-22 42.5z" />
<glyph unicode="&#xa4;" horiz-adv-x="1011" d="M109 438l133 133q-59 76 -60 166q0 92 58 168l-131 125l14 17l12 16l15 14l16 15l133 -129q74 57 166 57q98 0 172 -55l129 129l18 -15q25 -20 43 -49l-133 -125q53 -74 54 -168q0 -94 -56 -168l133 -133l-14 -14l-12 -12l-19 -17l-16 -14l-129 133q-72 -57 -168 -57 t-168 57l-133 -131q-32 24 -57 57zM274 737q0 -80 56.5 -136t134.5 -56q80 0 136 56t56 136t-56 136.5t-136 56.5t-135.5 -55.5t-55.5 -137.5z" />
<glyph unicode="&#xa5;" horiz-adv-x="1148" d="M82 1427q0 63 65 64q43 0 68 -39l360 -612l361 612q25 39 65 39q66 0 66 -64q0 -23 -8 -36l-332 -562l256 2q18 0 31.5 -13t13.5 -34q0 -41 -45 -41h-315l-23 -51l-2 -39l342 2q12 0 23 -8q20 -16 20 -41q0 -37 -45 -37l-340 -2l4 -512q0 -74 -72 -73q-72 0 -71 73 l-4 512l-336 -2q-51 0 -51 45q0 41 51 41l338 2l-4 39l-27 49l-307 -2q-20 0 -35.5 13.5t-15.5 33.5q0 16 15 28.5t36 12.5h258l-330 564q-10 16 -10 36z" />
<glyph unicode="&#xa7;" horiz-adv-x="1163" d="M72 580q0 106 47 182t176 176q-78 66 -106.5 117t-28.5 129q0 160 110.5 243.5t323.5 83.5q104 0 199.5 -20.5t165 -107.5t69.5 -197q0 -29 -22.5 -49.5t-55.5 -20.5q-66 0 -73 84l-7 55q-4 25 -18 45q-25 37 -68 54q-37 10 -99 20t-107 10q-127 0 -200 -49t-73 -135 q0 -57 29 -96q14 -18 47 -43t61 -41l377 -191q268 -137 268 -362q0 -111 -56 -187.5t-202 -160.5q86 -74 116 -126t30 -128q0 -104 -66.5 -185t-147.5 -112t-233 -31q-106 0 -173.5 22.5t-125.5 75.5q-43 41 -67.5 98.5t-24.5 114.5q0 94 80 95q63 0 64 -74q0 -117 54 -157 t204 -40q289 0 288 176q0 59 -26.5 96.5t-95.5 73.5l-357 183q-90 47 -143 91t-86 95q-23 39 -35 89t-12 104zM190 569q0 -127 211 -237l277 -144q100 39 145 68t87 80t42 119q0 45 -24.5 95t-59.5 81q-27 20 -51 35.5t-67 35.5l-338 172q-74 -45 -113 -81.5t-70 -94.5 q-39 -70 -39 -129z" />
<glyph unicode="&#xa8;" horiz-adv-x="452" d="M-59 1278q0 39 28.5 67.5t69.5 28.5q39 0 66.5 -27.5t27.5 -68.5t-27.5 -68.5t-68.5 -27.5q-39 0 -67.5 28.5t-28.5 67.5zM319 1278q0 39 27 67.5t66 28.5q41 0 70.5 -27.5t29.5 -70.5q0 -37 -28.5 -65.5t-69.5 -28.5t-68 26.5t-27 69.5z" />
<glyph unicode="&#xa9;" horiz-adv-x="1908" d="M119 739q0 317 223 540.5t541 223.5q317 0 540.5 -223t223.5 -541q0 -317 -223.5 -540.5t-540.5 -223.5t-540.5 223.5t-223.5 540.5zM209 739q0 -137 51 -262t147.5 -223t219.5 -148.5t256 -50.5q131 0 255 50.5t221 148.5t147 223t50 260q0 133 -49 259t-147 225.5 t-221 149.5t-256 50q-131 0 -255 -50t-220.5 -148.5t-147.5 -222.5t-51 -261zM395 721q0 94 37 197q55 154 183 241.5t294 87.5h58q25 -6 37 -8q141 -25 245 -117l-53 -73q-86 78 -197 98q-39 8 -84 8q-156 0 -269.5 -97t-139.5 -255q-6 -41 -6 -78q0 -180 119.5 -298 t291.5 -118q119 0 228 66l55 41l53 -74q-74 -61 -154.5 -93t-174.5 -32q-221 0 -372 146.5t-151 357.5z" />
<glyph unicode="&#xaa;" horiz-adv-x="983" d="M109 1143q0 35 6 71q25 129 113.5 206t205.5 77q29 0 60 -6q123 -27 182 -135l10 -19l6 -12v150h109v-662h-111v160l-6 -17q-31 -74 -98.5 -116.5t-155.5 -42.5q-59 0 -121 24q-160 68 -194 252q-6 35 -6 70zM131 610v101h670v-101h-670zM221 1147l4 -49 q23 -106 103 -162q59 -41 131 -41t131 43q78 57 98 156q6 29 6 57q0 51 -22 102l-21 39q-33 53 -84 81t-110 28q-96 0 -164 -72q-51 -53 -68 -137z" />
<glyph unicode="&#xab;" horiz-adv-x="780" d="M82 547q0 14 18 45l183 319q23 43 67 43q57 0 58 -59q0 -25 -15 -45l-184 -307l182 -305q18 -31 19 -50q0 -23 -18.5 -41t-45.5 -18q-35 0 -65 47l-170 309q-8 16 -25 52q-2 4 -4 10zM373 547q0 12 16 45l182 319q23 43 68 43q55 0 55 -57q0 -23 -10 -47l-186 -307 l184 -305q6 -14 12 -27.5t6 -22.5q0 -23 -20.5 -41t-44.5 -18q-37 0 -64 47l-170 309q-14 20 -19 35z" />
<glyph unicode="&#xac;" horiz-adv-x="1245" d="M109 737v111h933v-406h-98v295h-835z" />
<glyph unicode="&#xad;" horiz-adv-x="710" d="M82 537q0 29 16.5 47t40.5 18h424q25 0 45.5 -18.5t20.5 -46.5q0 -29 -18.5 -47.5t-47.5 -18.5h-424q-25 0 -41 18.5t-16 47.5z" />
<glyph unicode="&#xae;" horiz-adv-x="1908" d="M119 739q0 317 223 540.5t541 223.5q317 0 540.5 -223t223.5 -541q0 -317 -223.5 -540.5t-540.5 -223.5t-540.5 223.5t-223.5 540.5zM209 739q0 -137 51 -262t147.5 -223t219.5 -148.5t256 -50.5q131 0 255 50.5t221 148.5t147 223t50 260q0 133 -49 259t-147 225.5 t-221 149.5t-256 50q-131 0 -255 -50t-220.5 -148.5t-147.5 -222.5t-51 -261zM655 254v989h209q145 0 216 -57.5t85 -149.5q6 -35 6 -63q0 -102 -63.5 -172t-169.5 -82l-37 -2l318 -463h-123l-336 500v-500h-105zM760 782h84q223 0 223 185q0 92 -52 140t-155 48h-100v-373z " />
<glyph unicode="&#xaf;" horiz-adv-x="577" d="M2 1268q0 31 21.5 52t52.5 21l432 -2q31 0 52.5 -21.5t21.5 -51.5q0 -27 -22.5 -47.5t-55.5 -20.5l-426 2q-33 0 -54.5 19.5t-21.5 48.5z" />
<glyph unicode="&#xb1;" horiz-adv-x="1216" d="M90 39v139h946v-139h-946zM90 539v139h404v250h139v-250h403v-139h-403v-250h-139v250h-404z" />
<glyph unicode="&#xb4;" horiz-adv-x="444" d="M4 1237q0 57 49 78l295 112l23 5q31 0 53 -16.5t22 -41.5q0 -59 -47 -76l-295 -116l-20 -4q-31 0 -55.5 18t-24.5 41z" />
<glyph unicode="&#xb5;" horiz-adv-x="1275" d="M150 -285l4 119l4 182l-2 207l-4 195v502h188v-607q0 -145 28.5 -194t102.5 -49q117 0 194.5 165.5t77.5 417.5v267h189v-672q0 -92 19.5 -135t58.5 -43q41 0 64.5 42t23.5 126v28h43l2 -18v-27q0 -113 -48 -176t-137 -63q-100 0 -154 88t-54 264q-47 -182 -126 -267 t-198 -85q-86 0 -150 53q-57 55 -81 158l-2 -58q0 -133 65.5 -290.5t65.5 -186.5q0 -41 -22.5 -63.5t-63.5 -22.5q-47 0 -67.5 35t-20.5 108z" />
<glyph unicode="&#xb6;" horiz-adv-x="1302" d="M109 1092q0 158 110 270.5t268 112.5h609v-89h-609q-121 0 -204.5 -86t-83.5 -213q0 -119 85 -203.5t203 -84.5h148v506h90v-1305h-90v711h-148q-158 0 -268 110.5t-110 270.5zM868 0v1305h90v-1305h-90z" />
<glyph unicode="&#xb7;" horiz-adv-x="425" d="M121 535q0 37 26.5 63.5t63.5 26.5q41 0 67.5 -27t26.5 -70q0 -35 -27.5 -60.5t-64.5 -25.5q-39 0 -65.5 27t-26.5 66z" />
<glyph unicode="&#xb8;" horiz-adv-x="309" d="M43 -233q0 57 23 94l118 202h127l-153 -319q-20 -39 -72 -39q-43 0 -43 62z" />
<glyph unicode="&#xba;" horiz-adv-x="985" d="M109 1151l6 68q25 131 120 209.5t218 78.5q72 0 143 -30q166 -72 201 -258q6 -35 6 -70q0 -33 -6 -68q-20 -111 -92 -184.5t-179 -95.5q-31 -8 -69 -8h-35q-25 6 -37 8q-106 23 -178 96.5t-92 183.5zM121 610v101h670v-101h-670zM219 1151q0 -80 34 -138.5t87 -88 t117 -29.5q102 0 170 76q49 55 61 131q4 33 4 49q0 78 -33.5 136.5t-87 88t-116.5 29.5q-100 0 -168 -74t-68 -180z" />
<glyph unicode="&#xbb;" horiz-adv-x="780" d="M82 897q0 23 19.5 40t41.5 17q39 0 68 -49l168 -305q14 -25 27 -51q2 -4 4 -10q0 -14 -21 -47l-180 -322q-25 -41 -68 -41q-57 0 -57 59q0 27 14 48l185 305l-183 307q-18 29 -18 49zM373 895q0 23 18.5 41t42.5 18q39 0 64 -49l170 -305q14 -25 26 -51q2 -4 4 -10 q0 -12 -18 -47l-182 -322q-25 -41 -68 -41q-55 0 -55 59q0 25 12 48l186 305l-186 307q-14 27 -14 47z" />
<glyph unicode="&#xbf;" horiz-adv-x="931" d="M51 272q0 37 20.5 59.5t53.5 22.5q55 0 70 -71q37 -174 243 -174q117 0 188.5 63.5t71.5 165.5q0 231 -235 262q-29 4 -46.5 9t-36 25.5t-18.5 33.5v37v294q0 29 20.5 47.5t51.5 18.5q29 0 47.5 -18.5t18.5 -47.5v-264q92 -16 133 -35.5t96 -66.5q123 -115 123 -287 q0 -170 -114.5 -272.5t-301.5 -102.5q-160 0 -272.5 88t-112.5 213zM344 1421q0 39 25.5 62.5t64.5 23.5q37 0 63.5 -24.5t26.5 -61.5t-26.5 -63.5t-65.5 -26.5q-37 0 -62.5 25.5t-25.5 64.5z" />
<glyph unicode="&#xc0;" horiz-adv-x="1253" d="M27 45q0 25 8 41l487 1313q20 53 41 72.5t58 19.5q49 0 69.5 -16.5t42.5 -75.5l488 -1313l6 -41q0 -66 -62 -65q-47 0 -69 49l-115 299h-709l-114 -299q-23 -49 -68 -49q-63 0 -63 65zM311 449h629l-313 860zM406 1827q0 23 22.5 41.5t55.5 18.5l18 -5l295 -114 q49 -18 49 -78q0 -25 -22.5 -41t-55.5 -16l-20 4l-295 116q-47 16 -47 74z" />
<glyph unicode="&#xc1;" horiz-adv-x="1253" d="M27 45q0 25 8 41l487 1313q20 53 41 72.5t58 19.5q49 0 69.5 -16.5t42.5 -75.5l488 -1313l6 -41q0 -66 -62 -65q-47 0 -69 49l-115 299h-709l-114 -299q-23 -49 -68 -49q-63 0 -63 65zM311 449h629l-313 860zM407 1692q0 57 49 78l295 112l23 5q31 0 53 -16.5t22 -41.5 q0 -59 -47 -76l-295 -116l-20 -4q-31 0 -55.5 18t-24.5 41z" />
<glyph unicode="&#xc2;" horiz-adv-x="1253" d="M27 45q0 25 8 41l487 1313q20 53 41 72.5t58 19.5q49 0 69.5 -16.5t42.5 -75.5l488 -1313l6 -41q0 -66 -62 -65q-47 0 -69 49l-115 299h-709l-114 -299q-23 -49 -68 -49q-63 0 -63 65zM311 449h629l-313 860zM313 1694q0 59 47 76l223 88l41 14l43 -14l226 -84 q45 -16 45 -78q0 -27 -25 -45t-57 -18l-25 6l-207 84l-211 -84q-4 -2 -22 -4q-33 0 -55.5 16t-22.5 43z" />
<glyph unicode="&#xc3;" horiz-adv-x="1253" d="M27 45q0 25 8 41l487 1313q20 53 41 72.5t58 19.5q49 0 69.5 -16.5t42.5 -75.5l488 -1313l6 -41q0 -66 -62 -65q-47 0 -69 49l-115 299h-709l-114 -299q-23 -49 -68 -49q-63 0 -63 65zM311 449h629l-313 860zM336 1723q0 31 21.5 52t52.5 21l430 -2q33 0 54 -21.5 t21 -51.5q0 -27 -22.5 -47.5t-54.5 -20.5l-426 2q-33 0 -54.5 19.5t-21.5 48.5z" />
<glyph unicode="&#xc4;" horiz-adv-x="1253" d="M27 45q0 25 8 41l487 1313q20 53 41 72.5t58 19.5q49 0 69.5 -16.5t42.5 -75.5l488 -1313l6 -41q0 -66 -62 -65q-47 0 -69 49l-115 299h-709l-114 -299q-23 -49 -68 -49q-63 0 -63 65zM309 1505q0 39 29 68t70 29t67.5 -29t26.5 -70q0 -39 -26.5 -65.5t-67.5 -26.5 t-70 26.5t-29 67.5zM311 449h629l-313 860zM754 1503q0 41 26.5 70t67.5 29t69.5 -27t28.5 -70q0 -41 -28.5 -67.5t-71.5 -26.5q-41 0 -66.5 25.5t-25.5 66.5z" />
<glyph unicode="&#xc5;" horiz-adv-x="1253" d="M27 45q0 25 8 41l487 1313q18 47 25.5 58t30.5 24q-115 98 -115 159q0 74 47 123t119 49q68 0 116 -50t48 -120q0 -31 -30 -70.5t-89 -90.5q25 -10 33 -22.5t26 -59.5l488 -1313l6 -41q0 -66 -62 -65q-47 0 -69 49l-115 299h-709l-114 -299q-23 -49 -68 -49q-63 0 -63 65 zM311 449h629l-313 860zM549 1645q0 -33 22.5 -57.5t55.5 -24.5q35 0 59.5 24.5t24.5 57.5q0 35 -22.5 57t-59.5 22q-35 0 -57.5 -22t-22.5 -57z" />
<glyph unicode="&#xc6;" horiz-adv-x="1529" d="M8 49q0 20 10 33l668 1323q20 43 38.5 57.5t49.5 14.5h592q27 0 45.5 -18.5t18.5 -45.5t-18.5 -47t-45.5 -20h-444v-547h424q25 0 41 -18.5t16 -45.5t-18.5 -45t-45.5 -18h-421v-543h466q27 0 45.5 -18.5t18.5 -44.5q0 -29 -18.5 -47.5t-47.5 -18.5h-530 q-33 0 -54.5 21.5t-21.5 56.5v252h-483l-156 -303q-27 -45 -65 -45q-63 0 -64 67zM352 453h428v847z" />
<glyph unicode="&#xc7;" horiz-adv-x="1208" d="M82 727q0 344 174 557t457 213q174 0 307 -80q123 -72 123 -141q0 -29 -20.5 -49.5t-47.5 -20.5q-29 0 -69 39l-58 47q-102 74 -237 74q-213 0 -347.5 -175t-134.5 -456t139.5 -452.5t366.5 -171.5q82 0 140.5 18t87 33.5t90.5 62.5q29 27 57 27q68 0 68 -70 q0 -43 -50 -80q-156 -123 -397 -122q-291 0 -470 205.5t-179 541.5zM561 -215q0 35 19 51l118 125h125l-151 -197q-29 -29 -66 -28q-45 0 -45 49z" />
<glyph unicode="&#xc8;" horiz-adv-x="899" d="M141 80v1321q0 33 21.5 54.5t54.5 21.5h512q66 0 66 -66q0 -29 -18.5 -47t-49.5 -18h-438v-545h418q27 0 47 -18.5t20 -45.5q0 -25 -18.5 -45t-46.5 -20h-424v-541h465q27 0 47 -18.5t20 -46.5q0 -29 -18.5 -47.5t-48.5 -18.5h-535q-74 0 -74 80zM227 1827 q0 23 22.5 41.5t55.5 18.5l18 -5l295 -114q49 -18 49 -78q0 -25 -22.5 -41t-55.5 -16l-20 4l-295 116q-47 16 -47 74z" />
<glyph unicode="&#xc9;" horiz-adv-x="899" d="M141 80v1321q0 33 21.5 54.5t54.5 21.5h512q66 0 66 -66q0 -29 -18.5 -47t-49.5 -18h-438v-545h418q27 0 47 -18.5t20 -45.5q0 -25 -18.5 -45t-46.5 -20h-424v-541h465q27 0 47 -18.5t20 -46.5q0 -29 -18.5 -47.5t-48.5 -18.5h-535q-74 0 -74 80zM231 1692q0 57 49 78 l295 112l23 5q31 0 53 -16.5t22 -41.5q0 -59 -47 -76l-295 -116l-20 -4q-31 0 -55.5 18t-24.5 41z" />
<glyph unicode="&#xca;" horiz-adv-x="899" d="M137 1694q0 59 47 76l223 88l41 14l43 -14l226 -84q45 -16 45 -78q0 -27 -25 -45t-57 -18l-25 6l-207 84l-211 -84q-4 -2 -22 -4q-33 0 -55.5 16t-22.5 43zM141 80v1321q0 33 21.5 54.5t54.5 21.5h512q66 0 66 -66q0 -29 -18.5 -47t-49.5 -18h-438v-545h418 q27 0 47 -18.5t20 -45.5q0 -25 -18.5 -45t-46.5 -20h-424v-541h465q27 0 47 -18.5t20 -46.5q0 -29 -18.5 -47.5t-48.5 -18.5h-535q-74 0 -74 80z" />
<glyph unicode="&#xcb;" horiz-adv-x="899" d="M141 80v1321q0 33 21.5 54.5t54.5 21.5h512q66 0 66 -66q0 -29 -18.5 -47t-49.5 -18h-438v-545h418q27 0 47 -18.5t20 -45.5q0 -25 -18.5 -45t-46.5 -20h-424v-541h465q27 0 47 -18.5t20 -46.5q0 -29 -18.5 -47.5t-48.5 -18.5h-535q-74 0 -74 80zM164 1733 q0 39 28.5 67.5t69.5 28.5q39 0 66.5 -27.5t27.5 -68.5t-27.5 -68.5t-68.5 -27.5q-39 0 -67.5 28.5t-28.5 67.5zM542 1733q0 39 27 67.5t66 28.5q41 0 70.5 -27.5t29.5 -70.5q0 -37 -28.5 -65.5t-69.5 -28.5t-68 26.5t-27 69.5z" />
<glyph unicode="&#xcc;" horiz-adv-x="421" d="M-10 1827q0 23 22.5 41.5t55.5 18.5l18 -5l295 -114q49 -18 49 -78q0 -25 -22.5 -41t-55.5 -16l-20 4l-295 116q-47 16 -47 74zM141 49v1370q0 29 20.5 51.5t51.5 22.5q27 0 47.5 -22.5t20.5 -51.5v-1370q0 -31 -19.5 -50t-48.5 -19q-31 0 -51.5 20t-20.5 49z" />
<glyph unicode="&#xcd;" horiz-adv-x="421" d="M-6 1692q0 57 49 78l295 112l23 5q31 0 53 -16.5t22 -41.5q0 -59 -47 -76l-295 -116l-20 -4q-31 0 -55.5 18t-24.5 41zM141 49v1370q0 29 20.5 51.5t51.5 22.5q27 0 47.5 -22.5t20.5 -51.5v-1370q0 -31 -19.5 -50t-48.5 -19q-31 0 -51.5 20t-20.5 49z" />
<glyph unicode="&#xce;" horiz-adv-x="421" d="M-100 1694q0 59 47 76l223 88l41 14l43 -14l226 -84q45 -16 45 -78q0 -27 -25 -45t-57 -18l-25 6l-207 84l-211 -84q-4 -2 -22 -4q-33 0 -55.5 16t-22.5 43zM141 49v1370q0 29 20.5 51.5t51.5 22.5q27 0 47.5 -22.5t20.5 -51.5v-1370q0 -31 -19.5 -50t-48.5 -19 q-31 0 -51.5 20t-20.5 49z" />
<glyph unicode="&#xcf;" horiz-adv-x="421" d="M-73 1733q0 39 28.5 67.5t69.5 28.5q39 0 66.5 -27.5t27.5 -68.5t-27.5 -68.5t-68.5 -27.5q-39 0 -67.5 28.5t-28.5 67.5zM141 49v1370q0 29 20.5 51.5t51.5 22.5q27 0 47.5 -22.5t20.5 -51.5v-1370q0 -31 -19.5 -50t-48.5 -19q-31 0 -51.5 20t-20.5 49zM305 1733 q0 39 27 67.5t66 28.5q41 0 70.5 -27.5t29.5 -70.5q0 -37 -28.5 -65.5t-69.5 -28.5t-68 26.5t-27 69.5z" />
<glyph unicode="&#xd1;" horiz-adv-x="1376" d="M141 55v1368q0 31 22.5 51.5t53.5 20.5q35 0 57 -29l824 -1224v1177q0 33 19.5 54.5t49.5 21.5q29 0 48.5 -21.5t19.5 -52.5v-1372q0 -31 -20.5 -51.5t-49.5 -20.5q-35 0 -57 31l-827 1227v-1180q0 -31 -18.5 -51t-47.5 -20q-31 0 -52.5 21.5t-21.5 49.5zM397 1723 q0 31 21.5 52t52.5 21l430 -2q33 0 54 -21.5t21 -51.5q0 -27 -22.5 -47.5t-54.5 -20.5l-426 2q-33 0 -54.5 19.5t-21.5 48.5z" />
<glyph unicode="&#xd2;" horiz-adv-x="1415" d="M82 737q0 332 175 544t450 212q274 0 450 -211t176 -545q0 -330 -176 -542.5t-450 -212.5q-276 0 -450.5 210.5t-174.5 544.5zM240 737q0 -291 124.5 -461t342.5 -170q215 0 342 170t127 461q0 289 -127 460t-342 171t-341 -171t-126 -460zM485 1827q0 23 22.5 41.5 t55.5 18.5l18 -5l295 -114q49 -18 49 -78q0 -25 -22.5 -41t-55.5 -16l-20 4l-295 116q-47 16 -47 74z" />
<glyph unicode="&#xd3;" horiz-adv-x="1415" d="M82 737q0 332 175 544t450 212q274 0 450 -211t176 -545q0 -330 -176 -542.5t-450 -212.5q-276 0 -450.5 210.5t-174.5 544.5zM240 737q0 -291 124.5 -461t342.5 -170q215 0 342 170t127 461q0 289 -127 460t-342 171t-341 -171t-126 -460zM489 1692q0 57 49 78l295 112 l23 5q31 0 53 -16.5t22 -41.5q0 -59 -47 -76l-295 -116l-20 -4q-31 0 -55.5 18t-24.5 41z" />
<glyph unicode="&#xd4;" horiz-adv-x="1415" d="M82 737q0 332 175 544t450 212q274 0 450 -211t176 -545q0 -330 -176 -542.5t-450 -212.5q-276 0 -450.5 210.5t-174.5 544.5zM240 737q0 -291 124.5 -461t342.5 -170q215 0 342 170t127 461q0 289 -127 460t-342 171t-341 -171t-126 -460zM395 1694q0 59 47 76l223 88 l41 14l43 -14l226 -84q45 -16 45 -78q0 -27 -25 -45t-57 -18l-25 6l-207 84l-211 -84q-4 -2 -22 -4q-33 0 -55.5 16t-22.5 43z" />
<glyph unicode="&#xd5;" horiz-adv-x="1415" d="M82 737q0 332 175 544t450 212q274 0 450 -211t176 -545q0 -330 -176 -542.5t-450 -212.5q-276 0 -450.5 210.5t-174.5 544.5zM240 737q0 -291 124.5 -461t342.5 -170q215 0 342 170t127 461q0 289 -127 460t-342 171t-341 -171t-126 -460zM416 1723q0 31 21.5 52 t52.5 21l430 -2q33 0 54 -21.5t21 -51.5q0 -27 -22.5 -47.5t-54.5 -20.5l-426 2q-33 0 -54.5 19.5t-21.5 48.5z" />
<glyph unicode="&#xd6;" horiz-adv-x="1415" d="M82 737q0 332 175 544t450 212q274 0 450 -211t176 -545q0 -330 -176 -542.5t-450 -212.5q-276 0 -450.5 210.5t-174.5 544.5zM145 1513q0 43 28 71t69 28q39 0 65.5 -29t26.5 -70q0 -37 -26.5 -63.5t-67.5 -26.5q-37 0 -66 26.5t-29 63.5zM240 737q0 -291 124.5 -461 t342.5 -170q215 0 342 170t127 461q0 289 -127 460t-342 171t-341 -171t-126 -460zM1081 1513q0 41 32 71t81 30q29 0 51.5 -26.5t22.5 -67.5q0 -39 -27 -68t-65 -29q-39 0 -67 25.5t-28 64.5z" />
<glyph unicode="&#xd8;" horiz-adv-x="1415" d="M76 12q0 33 16 54l137 170q-90 154 -118.5 252t-28.5 253q0 330 174 542t446 212q131 0 211 -32.5t207 -141.5l137 170q12 14 46 14q53 0 53 -55q0 -23 -17 -47l-141 -172q80 -154 106.5 -252t26.5 -238q0 -334 -174 -546.5t-448 -212.5q-129 0 -206 30.5t-194 132.5 l-127 -155q-18 -25 -57 -25q-49 0 -49 47zM238 731q0 -119 16.5 -189.5t71.5 -189.5l708 865q-100 90 -163.5 118.5t-168.5 28.5q-215 0 -339.5 -170t-124.5 -463zM391 248q94 -80 158.5 -106.5t165.5 -26.5q215 0 338 165.5t123 458.5q0 117 -12.5 181.5t-61.5 193.5z" />
<glyph unicode="&#xd9;" horiz-adv-x="1386" d="M141 504v913q0 29 20.5 51.5t51.5 22.5q27 0 47.5 -22.5t20.5 -51.5v-917q0 -106 24.5 -168t91.5 -121q57 -53 134 -82t161 -29q174 0 297 111q66 59 90.5 120.5t24.5 168.5v917q0 31 19.5 52.5t47.5 21.5q29 0 49.5 -22.5t20.5 -51.5v-913q0 -135 -35 -221t-121 -162 q-168 -141 -393 -141q-109 0 -211 36.5t-182 104.5q-86 76 -122 163t-36 220zM471 1827q0 23 22.5 41.5t55.5 18.5l18 -5l295 -114q49 -18 49 -78q0 -25 -22.5 -41t-55.5 -16l-20 4l-295 116q-47 16 -47 74z" />
<glyph unicode="&#xda;" horiz-adv-x="1386" d="M141 504v913q0 29 20.5 51.5t51.5 22.5q27 0 47.5 -22.5t20.5 -51.5v-917q0 -106 24.5 -168t91.5 -121q57 -53 134 -82t161 -29q174 0 297 111q66 59 90.5 120.5t24.5 168.5v917q0 31 19.5 52.5t47.5 21.5q29 0 49.5 -22.5t20.5 -51.5v-913q0 -135 -35 -221t-121 -162 q-168 -141 -393 -141q-109 0 -211 36.5t-182 104.5q-86 76 -122 163t-36 220zM475 1692q0 57 49 78l295 112l23 5q31 0 53 -16.5t22 -41.5q0 -59 -47 -76l-295 -116l-20 -4q-31 0 -55.5 18t-24.5 41z" />
<glyph unicode="&#xdb;" horiz-adv-x="1386" d="M141 504v913q0 29 20.5 51.5t51.5 22.5q27 0 47.5 -22.5t20.5 -51.5v-917q0 -106 24.5 -168t91.5 -121q57 -53 134 -82t161 -29q174 0 297 111q66 59 90.5 120.5t24.5 168.5v917q0 31 19.5 52.5t47.5 21.5q29 0 49.5 -22.5t20.5 -51.5v-913q0 -135 -35 -221t-121 -162 q-168 -141 -393 -141q-109 0 -211 36.5t-182 104.5q-86 76 -122 163t-36 220zM381 1694q0 59 47 76l223 88l41 14l43 -14l226 -84q45 -16 45 -78q0 -27 -25 -45t-57 -18l-25 6l-207 84l-211 -84q-4 -2 -22 -4q-33 0 -55.5 16t-22.5 43z" />
<glyph unicode="&#xdc;" horiz-adv-x="1386" d="M141 504v913q0 29 20.5 51.5t51.5 22.5q27 0 47.5 -22.5t20.5 -51.5v-917q0 -106 24.5 -168t91.5 -121q57 -53 134 -82t161 -29q174 0 297 111q66 59 90.5 120.5t24.5 168.5v917q0 31 19.5 52.5t47.5 21.5q29 0 49.5 -22.5t20.5 -51.5v-913q0 -135 -35 -221t-121 -162 q-168 -141 -393 -141q-109 0 -211 36.5t-182 104.5q-86 76 -122 163t-36 220zM434 1507q0 41 26.5 70t65.5 29q41 0 70 -29t29 -70t-28 -68.5t-69 -27.5t-67.5 26.5t-26.5 69.5zM760 1507q0 41 26.5 70t69.5 29q37 0 65.5 -29t28.5 -70t-27.5 -68.5t-66.5 -27.5 q-41 0 -68.5 27.5t-27.5 68.5z" />
<glyph unicode="&#xdf;" horiz-adv-x="1134" d="M141 55v1098q0 209 103.5 324.5t292.5 115.5q168 0 272 -112.5t104 -294.5q0 -78 -20.5 -139.5t-47 -95.5t-89.5 -81q106 -43 154 -88t86 -139t38 -197q0 -195 -106.5 -329.5t-263.5 -134.5q-121 0 -121 79q0 31 21.5 50.5t53.5 19.5l44 -2l12 -2q92 0 150.5 89t58.5 230 q0 150 -70 244t-186 94l-56 7q-35 10 -34 57q0 49 36 57l48 15q68 18 108.5 87.5t40.5 170.5q0 127 -65.5 206.5t-174.5 79.5q-115 0 -183 -76.5t-68 -211.5v-1121q0 -29 -18.5 -51t-47.5 -22q-31 0 -51.5 22.5t-20.5 50.5z" />
<glyph unicode="&#xe0;" horiz-adv-x="1148" d="M82 545q0 244 131 403.5t332 159.5q102 0 167.5 -31t153.5 -121v80q0 31 21.5 52.5t52.5 21.5q29 0 48.5 -19.5t19.5 -50.5v-991q0 -29 -20.5 -49t-49.5 -20q-31 0 -52.5 23.5t-21.5 55.5v101q-76 -102 -142.5 -140t-172.5 -38q-203 0 -335 158.5t-132 404.5zM233 547 q0 -205 86.5 -326t233.5 -121q322 0 321 457q0 125 -16 192.5t-63 129.5q-85 112 -230 112q-154 0 -243 -119.5t-89 -324.5zM352 1372q0 23 22.5 41.5t55.5 18.5l18 -5l295 -114q49 -18 49 -78q0 -25 -22.5 -41t-55.5 -16l-20 4l-295 116q-47 16 -47 74z" />
<glyph unicode="&#xe1;" horiz-adv-x="1148" d="M82 545q0 244 131 403.5t332 159.5q102 0 167.5 -31t153.5 -121v80q0 31 21.5 52.5t52.5 21.5q29 0 48.5 -19.5t19.5 -50.5v-991q0 -29 -20.5 -49t-49.5 -20q-31 0 -52.5 23.5t-21.5 55.5v101q-76 -102 -142.5 -140t-172.5 -38q-203 0 -335 158.5t-132 404.5zM233 547 q0 -205 86.5 -326t233.5 -121q322 0 321 457q0 125 -16 192.5t-63 129.5q-85 112 -230 112q-154 0 -243 -119.5t-89 -324.5zM356 1237q0 57 49 78l295 112l23 5q31 0 53 -16.5t22 -41.5q0 -59 -47 -76l-295 -116l-20 -4q-31 0 -55.5 18t-24.5 41z" />
<glyph unicode="&#xe2;" horiz-adv-x="1148" d="M82 545q0 244 131 403.5t332 159.5q102 0 167.5 -31t153.5 -121v80q0 31 21.5 52.5t52.5 21.5q29 0 48.5 -19.5t19.5 -50.5v-991q0 -29 -20.5 -49t-49.5 -20q-31 0 -52.5 23.5t-21.5 55.5v101q-76 -102 -142.5 -140t-172.5 -38q-203 0 -335 158.5t-132 404.5zM233 547 q0 -205 86.5 -326t233.5 -121q322 0 321 457q0 125 -16 192.5t-63 129.5q-85 112 -230 112q-154 0 -243 -119.5t-89 -324.5zM262 1239q0 59 47 76l223 88l41 14l43 -14l226 -84q45 -16 45 -78q0 -27 -25 -45t-57 -18l-25 6l-207 84l-211 -84q-4 -2 -22 -4q-33 0 -55.5 16 t-22.5 43z" />
<glyph unicode="&#xe3;" horiz-adv-x="1148" d="M82 545q0 244 131 403.5t332 159.5q102 0 167.5 -31t153.5 -121v80q0 31 21.5 52.5t52.5 21.5q29 0 48.5 -19.5t19.5 -50.5v-991q0 -29 -20.5 -49t-49.5 -20q-31 0 -52.5 23.5t-21.5 55.5v101q-76 -102 -142.5 -140t-172.5 -38q-203 0 -335 158.5t-132 404.5zM233 547 q0 -205 86.5 -326t233.5 -121q322 0 321 457q0 125 -16 192.5t-63 129.5q-85 112 -230 112q-154 0 -243 -119.5t-89 -324.5zM283 1268q0 31 21.5 52t52.5 21l430 -2q33 0 54 -21.5t21 -51.5q0 -27 -22.5 -47.5t-54.5 -20.5l-426 2q-33 0 -54.5 19.5t-21.5 48.5z" />
<glyph unicode="&#xe4;" horiz-adv-x="1148" d="M82 545q0 244 131 403.5t332 159.5q102 0 167.5 -31t153.5 -121v80q0 31 21.5 52.5t52.5 21.5q29 0 48.5 -19.5t19.5 -50.5v-991q0 -29 -20.5 -49t-49.5 -20q-31 0 -52.5 23.5t-21.5 55.5v101q-76 -102 -142.5 -140t-172.5 -38q-203 0 -335 158.5t-132 404.5zM233 547 q0 -205 86.5 -326t233.5 -121q322 0 321 457q0 125 -16 192.5t-63 129.5q-85 112 -230 112q-154 0 -243 -119.5t-89 -324.5zM299 1331q0 41 28.5 70t69.5 29q43 0 70 -27t27 -70t-27 -71.5t-68 -28.5q-39 0 -69.5 28.5t-30.5 69.5zM676 1333q0 41 27.5 69t68.5 28t69.5 -29 t28.5 -70t-28.5 -69.5t-71.5 -28.5q-41 0 -67.5 28.5t-26.5 71.5z" />
<glyph unicode="&#xe5;" horiz-adv-x="1148" d="M82 545q0 244 131 403.5t332 159.5q102 0 167.5 -31t153.5 -121v80q0 31 21.5 52.5t52.5 21.5q29 0 48.5 -19.5t19.5 -50.5v-991q0 -29 -20.5 -49t-49.5 -20q-31 0 -52.5 23.5t-21.5 55.5v101q-76 -102 -142.5 -140t-172.5 -38q-203 0 -335 158.5t-132 404.5zM233 547 q0 -205 86.5 -326t233.5 -121q322 0 321 457q0 125 -16 192.5t-63 129.5q-85 112 -230 112q-154 0 -243 -119.5t-89 -324.5zM406 1348q0 63 43 108t106 45q61 0 105.5 -46t44.5 -107t-46.5 -105.5t-107.5 -44.5q-59 0 -102 43.5t-43 106.5zM481 1350q0 -31 21.5 -52.5 t50.5 -21.5q31 0 52.5 21.5t21.5 50.5q0 31 -21.5 52t-52.5 21t-51.5 -20.5t-20.5 -50.5z" />
<glyph unicode="&#xe6;" horiz-adv-x="1839" d="M82 537q0 248 129 407.5t332 159.5q200 0 321 -158v88q0 33 19.5 54.5t48.5 21.5q33 0 52.5 -21.5t19.5 -54.5v-98q92 98 161.5 133t169.5 35q188 0 313.5 -153.5t125.5 -387.5q0 -33 -10.5 -53.5t-30.5 -22.5h-50h-684q0 -94 19.5 -145t69 -109.5t117 -89t149.5 -30.5 q164 0 307 133q29 27 41 26q16 0 41.5 -21.5t25.5 -53.5q0 -39 -61 -86q-158 -127 -350 -127q-121 0 -190.5 32.5t-161.5 135.5v-99q0 -76 -70 -76q-31 0 -50.5 21.5t-19.5 52.5v117q-8 -12 -21.5 -32.5t-19.5 -26.5q-45 -55 -122.5 -90t-161.5 -35q-197 0 -328 157.5 t-131 395.5zM227 512q0 -176 91.5 -285.5t234.5 -109.5q152 0 233.5 114.5t81.5 325.5q0 199 -84 308.5t-237 109.5q-145 0 -232.5 -120t-87.5 -325v-18zM1001 602h631q-12 76 -18 105q-14 66 -45 116q-39 72 -104.5 111t-151.5 39q-164 0 -254 -137q-33 -53 -45.5 -100.5 t-12.5 -133.5z" />
<glyph unicode="&#xe7;" horiz-adv-x="905" d="M82 545q0 246 137 405.5t354 159.5q111 0 191 -34t80 -81q0 -29 -20.5 -51t-51.5 -22q-20 0 -35 8l-30 16q-74 35 -136 35q-150 0 -241.5 -116.5t-91.5 -309.5q0 -190 93 -314t238 -124q39 0 74 12l39 16l39 17l33 14l12 4q31 0 51.5 -18.5t20.5 -48.5q0 -53 -79 -91 t-192 -38q-219 0 -352 154.5t-133 406.5zM362 -215q0 29 19 51l117 125h127l-154 -197q-23 -29 -63 -28q-45 0 -46 49z" />
<glyph unicode="&#xe8;" horiz-adv-x="1089" d="M82 549q0 240 135 399.5t340 159.5q252 0 377 -213q37 -63 61.5 -157.5t24.5 -170.5q0 -49 -20.5 -65.5t-81.5 -16.5h-678q18 -123 55 -202q33 -78 110.5 -125t176.5 -47q141 0 243 92l56 49q29 25 55 24q29 0 49.5 -20t20.5 -49q0 -49 -88 -117q-154 -111 -336 -110 q-223 0 -361.5 156.5t-138.5 412.5zM238 602h632q-20 145 -59 219q-84 162 -256 162q-76 0 -141.5 -36.5t-106.5 -104.5q-33 -55 -46 -99.5t-23 -140.5zM324 1372q0 23 22.5 41.5t55.5 18.5l18 -5l295 -114q49 -18 49 -78q0 -25 -22.5 -41t-55.5 -16l-20 4l-295 116 q-47 16 -47 74z" />
<glyph unicode="&#xe9;" horiz-adv-x="1089" d="M82 549q0 240 135 399.5t340 159.5q252 0 377 -213q37 -63 61.5 -157.5t24.5 -170.5q0 -49 -20.5 -65.5t-81.5 -16.5h-678q18 -123 55 -202q33 -78 110.5 -125t176.5 -47q141 0 243 92l56 49q29 25 55 24q29 0 49.5 -20t20.5 -49q0 -49 -88 -117q-154 -111 -336 -110 q-223 0 -361.5 156.5t-138.5 412.5zM238 602h632q-20 145 -59 219q-84 162 -256 162q-76 0 -141.5 -36.5t-106.5 -104.5q-33 -55 -46 -99.5t-23 -140.5zM326 1237q0 57 49 78l295 112l23 5q31 0 53 -16.5t22 -41.5q0 -59 -47 -76l-295 -116l-20 -4q-31 0 -55.5 18t-24.5 41z " />
<glyph unicode="&#xea;" horiz-adv-x="1089" d="M82 549q0 240 135 399.5t340 159.5q252 0 377 -213q37 -63 61.5 -157.5t24.5 -170.5q0 -49 -20.5 -65.5t-81.5 -16.5h-678q18 -123 55 -202q33 -78 110.5 -125t176.5 -47q141 0 243 92l56 49q29 25 55 24q29 0 49.5 -20t20.5 -49q0 -49 -88 -117q-154 -111 -336 -110 q-223 0 -361.5 156.5t-138.5 412.5zM231 1239q0 59 47 76l223 88l41 14l43 -14l226 -84q45 -16 45 -78q0 -27 -25 -45t-57 -18l-25 6l-207 84l-211 -84q-4 -2 -22 -4q-33 0 -55.5 16t-22.5 43zM238 602h632q-20 145 -59 219q-84 162 -256 162q-76 0 -141.5 -36.5 t-106.5 -104.5q-33 -55 -46 -99.5t-23 -140.5z" />
<glyph unicode="&#xeb;" horiz-adv-x="1089" d="M82 549q0 240 135 399.5t340 159.5q252 0 377 -213q37 -63 61.5 -157.5t24.5 -170.5q0 -49 -20.5 -65.5t-81.5 -16.5h-678q18 -123 55 -202q33 -78 110.5 -125t176.5 -47q141 0 243 92l56 49q29 25 55 24q29 0 49.5 -20t20.5 -49q0 -49 -88 -117q-154 -111 -336 -110 q-223 0 -361.5 156.5t-138.5 412.5zM238 602h632q-20 145 -59 219q-84 162 -256 162q-76 0 -141.5 -36.5t-106.5 -104.5q-33 -55 -46 -99.5t-23 -140.5zM258 1278q0 39 28.5 67.5t69.5 28.5q39 0 66.5 -27.5t27.5 -68.5t-27.5 -68.5t-68.5 -27.5q-39 0 -67.5 28.5 t-28.5 67.5zM636 1278q0 39 27 67.5t66 28.5q41 0 70.5 -27.5t29.5 -70.5q0 -37 -28.5 -65.5t-69.5 -28.5t-68 26.5t-27 69.5z" />
<glyph unicode="&#xec;" horiz-adv-x="378" d="M-31 1372q0 23 22.5 41.5t55.5 18.5l18 -5l295 -114q49 -18 49 -78q0 -25 -22.5 -41t-55.5 -16l-20 4l-295 116q-47 16 -47 74zM119 53v987q0 29 22.5 49.5t51.5 20.5t47 -20.5t18 -49.5v-987q0 -31 -18.5 -51t-49.5 -20q-29 0 -50 19t-21 52z" />
<glyph unicode="&#xed;" horiz-adv-x="378" d="M-29 1237q0 57 49 78l295 112l23 5q31 0 53 -16.5t22 -41.5q0 -59 -47 -76l-295 -116l-20 -4q-31 0 -55.5 18t-24.5 41zM119 53v987q0 29 22.5 49.5t51.5 20.5t47 -20.5t18 -49.5v-987q0 -31 -18.5 -51t-49.5 -20q-29 0 -50 19t-21 52z" />
<glyph unicode="&#xee;" horiz-adv-x="378" d="M-123 1239q0 59 47 76l223 88l41 14l43 -14l226 -84q45 -16 45 -78q0 -27 -25 -45t-57 -18l-25 6l-207 84l-211 -84q-4 -2 -22 -4q-33 0 -55.5 16t-22.5 43zM119 53v987q0 29 22.5 49.5t51.5 20.5t47 -20.5t18 -49.5v-987q0 -31 -18.5 -51t-49.5 -20q-29 0 -50 19t-21 52 z" />
<glyph unicode="&#xef;" horiz-adv-x="378" d="M-96 1278q0 39 28.5 67.5t69.5 28.5q39 0 66.5 -27.5t27.5 -68.5t-27.5 -68.5t-68.5 -27.5q-39 0 -67.5 28.5t-28.5 67.5zM119 53v987q0 29 22.5 49.5t51.5 20.5t47 -20.5t18 -49.5v-987q0 -31 -18.5 -51t-49.5 -20q-29 0 -50 19t-21 52zM282 1278q0 39 27 67.5t66 28.5 q41 0 70.5 -27.5t29.5 -70.5q0 -37 -28.5 -65.5t-69.5 -28.5t-68 26.5t-27 69.5z" />
<glyph unicode="&#xf1;" horiz-adv-x="1112" d="M141 47v993q0 31 20.5 51.5t53.5 20.5q27 0 47.5 -22.5t20.5 -51.5v-82q35 45 57 65.5t63 41t87.5 33t84.5 12.5q168 0 289 -121q59 -61 83 -127.5t24 -173.5v-637q0 -31 -20.5 -51.5t-51.5 -20.5q-29 0 -49.5 20.5t-20.5 49.5v651q0 115 -76.5 198t-187.5 83 q-119 0 -201.5 -81t-82.5 -196v-655q0 -68 -66 -67q-31 0 -52.5 19t-21.5 48zM264 1268q0 31 21.5 52t52.5 21l430 -2q33 0 54 -21.5t21 -51.5q0 -27 -22.5 -47.5t-54.5 -20.5l-426 2q-33 0 -54.5 19.5t-21.5 48.5z" />
<glyph unicode="&#xf2;" horiz-adv-x="1103" d="M82 545q0 244 134 404.5t337 160.5t336 -159.5t133 -405.5q0 -242 -133 -403.5t-336 -161.5t-337 160.5t-134 404.5zM236 545q0 -201 87 -321t230 -120q141 0 229 121t88 320q0 197 -88 318.5t-229 121.5t-229 -122t-88 -318zM330 1372q0 23 22.5 41.5t55.5 18.5l18 -5 l295 -114q49 -18 49 -78q0 -25 -22.5 -41t-55.5 -16l-20 4l-295 116q-47 16 -47 74z" />
<glyph unicode="&#xf3;" horiz-adv-x="1103" d="M82 545q0 244 134 404.5t337 160.5t336 -159.5t133 -405.5q0 -242 -133 -403.5t-336 -161.5t-337 160.5t-134 404.5zM236 545q0 -201 87 -321t230 -120q141 0 229 121t88 320q0 197 -88 318.5t-229 121.5t-229 -122t-88 -318zM334 1237q0 57 49 78l295 112l23 5 q31 0 53 -16.5t22 -41.5q0 -59 -47 -76l-295 -116l-20 -4q-31 0 -55.5 18t-24.5 41z" />
<glyph unicode="&#xf4;" horiz-adv-x="1103" d="M82 545q0 244 134 404.5t337 160.5t336 -159.5t133 -405.5q0 -242 -133 -403.5t-336 -161.5t-337 160.5t-134 404.5zM236 545q0 -201 87 -321t230 -120q141 0 229 121t88 320q0 197 -88 318.5t-229 121.5t-229 -122t-88 -318zM240 1239q0 59 47 76l223 88l41 14l43 -14 l226 -84q45 -16 45 -78q0 -27 -25 -45t-57 -18l-25 6l-207 84l-211 -84q-4 -2 -22 -4q-33 0 -55.5 16t-22.5 43z" />
<glyph unicode="&#xf5;" horiz-adv-x="1103" d="M82 545q0 244 134 404.5t337 160.5t336 -159.5t133 -405.5q0 -242 -133 -403.5t-336 -161.5t-337 160.5t-134 404.5zM236 545q0 -201 87 -321t230 -120q141 0 229 121t88 320q0 197 -88 318.5t-229 121.5t-229 -122t-88 -318zM260 1268q0 31 21.5 52t52.5 21l430 -2 q33 0 54 -21.5t21 -51.5q0 -27 -22.5 -47.5t-54.5 -20.5l-426 2q-33 0 -54.5 19.5t-21.5 48.5z" />
<glyph unicode="&#xf6;" horiz-adv-x="1103" d="M82 545q0 244 134 404.5t337 160.5t336 -159.5t133 -405.5q0 -242 -133 -403.5t-336 -161.5t-337 160.5t-134 404.5zM236 545q0 -201 87 -321t230 -120q141 0 229 121t88 320q0 197 -88 318.5t-229 121.5t-229 -122t-88 -318zM270 1343q0 39 27 68t68 29t68.5 -28 t27.5 -69t-26.5 -67.5t-69.5 -26.5q-41 0 -68 26.5t-27 67.5zM647 1343q0 39 26.5 68t65.5 29q41 0 70 -29t29 -70q0 -39 -29 -65.5t-70 -26.5q-39 0 -65.5 26.5t-26.5 67.5z" />
<glyph unicode="&#xf7;" horiz-adv-x="1216" d="M88 414v139h948v-139h-948zM446 207q0 49 33 82q39 35 84 35q49 0 82 -33t33 -84q0 -49 -35 -82q-31 -35 -80 -35t-83 36t-34 81zM446 758q0 49 33 82q39 35 84 34q49 0 80 -34q35 -35 35 -82q0 -49 -35 -82q-31 -35 -80 -35t-83 34t-34 83z" />
<glyph unicode="&#xf8;" horiz-adv-x="1101" d="M72 -4q0 35 18 59l96 121q-59 119 -81.5 197t-22.5 170q0 244 133 405.5t336 161.5q80 0 139.5 -20.5t149.5 -81.5l94 122q18 20 53 21q53 0 53 -51q0 -27 -14 -45l-115 -146q68 -119 88.5 -189.5t20.5 -174.5q0 -246 -131 -405.5t-336 -159.5q-96 0 -148.5 20t-134.5 92 l-98 -123q-16 -23 -53 -22q-47 0 -47 49zM236 539q0 -72 8 -114t39 -122l471 594q-53 51 -96.5 69.5t-104.5 18.5q-145 0 -231 -121t-86 -325zM348 190q55 -49 95 -65t106 -16q143 0 231 118.5t88 317.5q0 115 -49 246z" />
<glyph unicode="&#xf9;" horiz-adv-x="1118" d="M141 401v635q0 31 21.5 52.5t52.5 21.5q27 0 46.5 -21.5t19.5 -52.5v-637q0 -150 74.5 -221.5t205.5 -71.5q125 0 205 74q72 63 72 219v637q0 31 19.5 52.5t45.5 21.5q29 0 51.5 -22.5t22.5 -51.5v-635q0 -121 -21.5 -183t-83.5 -124q-117 -113 -311 -112 q-197 0 -315 112q-59 57 -82 122t-23 185zM338 1372q0 23 22.5 41.5t55.5 18.5l18 -5l295 -114q49 -18 49 -78q0 -25 -22.5 -41t-55.5 -16l-20 4l-295 116q-47 16 -47 74z" />
<glyph unicode="&#xfa;" horiz-adv-x="1118" d="M141 401v635q0 31 21.5 52.5t52.5 21.5q27 0 46.5 -21.5t19.5 -52.5v-637q0 -150 74.5 -221.5t205.5 -71.5q125 0 205 74q72 63 72 219v637q0 31 19.5 52.5t45.5 21.5q29 0 51.5 -22.5t22.5 -51.5v-635q0 -121 -21.5 -183t-83.5 -124q-117 -113 -311 -112 q-197 0 -315 112q-59 57 -82 122t-23 185zM340 1237q0 57 49 78l295 112l23 5q31 0 53 -16.5t22 -41.5q0 -59 -47 -76l-295 -116l-20 -4q-31 0 -55.5 18t-24.5 41z" />
<glyph unicode="&#xfb;" horiz-adv-x="1118" d="M141 401v635q0 31 21.5 52.5t52.5 21.5q27 0 46.5 -21.5t19.5 -52.5v-637q0 -150 74.5 -221.5t205.5 -71.5q125 0 205 74q72 63 72 219v637q0 31 19.5 52.5t45.5 21.5q29 0 51.5 -22.5t22.5 -51.5v-635q0 -121 -21.5 -183t-83.5 -124q-117 -113 -311 -112 q-197 0 -315 112q-59 57 -82 122t-23 185zM246 1239q0 59 47 76l223 88l41 14l43 -14l226 -84q45 -16 45 -78q0 -27 -25 -45t-57 -18l-25 6l-207 84l-211 -84q-4 -2 -22 -4q-33 0 -55.5 16t-22.5 43z" />
<glyph unicode="&#xfc;" horiz-adv-x="1118" d="M141 401v635q0 31 21.5 52.5t52.5 21.5q27 0 46.5 -21.5t19.5 -52.5v-637q0 -150 74.5 -221.5t205.5 -71.5q125 0 205 74q72 63 72 219v637q0 31 19.5 52.5t45.5 21.5q29 0 51.5 -22.5t22.5 -51.5v-635q0 -121 -21.5 -183t-83.5 -124q-117 -113 -311 -112 q-197 0 -315 112q-59 57 -82 122t-23 185zM276 1343q0 41 29 70t70 29q39 0 65.5 -29t26.5 -70q0 -37 -26.5 -65.5t-65.5 -28.5q-41 0 -70 26.5t-29 67.5zM651 1343q0 41 27 70t67 29q41 0 70 -29t29 -70q0 -37 -29 -65.5t-70 -28.5t-67.5 26.5t-26.5 67.5z" />
<glyph unicode="&#xff;" horiz-adv-x="866" d="M20 1038q0 29 20.5 50.5t49.5 21.5q55 0 70 -51l274 -834l260 824q20 61 72 61q31 0 50.5 -19.5t19.5 -50.5q-2 -18 -5 -22l-471 -1399q-23 -66 -71 -65q-31 0 -51.5 18t-20.5 45l6 29l137 377l-335 993zM148 1278q0 39 28.5 67.5t69.5 28.5q39 0 66.5 -27.5t27.5 -68.5 t-27.5 -68.5t-68.5 -27.5q-39 0 -67.5 28.5t-28.5 67.5zM526 1278q0 39 27 67.5t66 28.5q41 0 70.5 -27.5t29.5 -70.5q0 -37 -28.5 -65.5t-69.5 -28.5t-68 26.5t-27 69.5z" />
<glyph unicode="&#x152;" horiz-adv-x="1910" d="M82 731q0 340 171 553t445 213q61 0 114.5 -12t115.5 -37q86 -37 130 -77t105 -136v168q0 31 21.5 52.5t52.5 21.5h502q29 0 48 -19.5t19 -48.5q0 -27 -19.5 -45t-47.5 -18h-439v-545h422q27 0 45.5 -19.5t18.5 -48.5q0 -61 -66 -61h-422v-543h465q29 0 47.5 -20.5 t18.5 -49.5q0 -23 -20.5 -41t-49.5 -18h-528q-72 0 -72 72v182l-43 -70q-68 -92 -182.5 -146t-239.5 -54q-268 0 -440 208.5t-172 538.5zM233 731q0 -276 128 -445t339 -169q215 0 341 164.5t126 447.5q0 291 -126 462t-339 171q-215 0 -342 -171t-127 -460z" />
<glyph unicode="&#x153;" horiz-adv-x="1863" d="M82 543q0 248 131 406.5t336 158.5q104 0 201 -51q63 -33 102 -75t88 -128l51 80q57 84 149.5 131t198.5 47q203 0 331 -150.5t128 -388.5q0 -47 -20.5 -63t-83.5 -16h-674q8 -92 21.5 -137.5t50.5 -98.5q98 -139 270 -139q158 0 287 123q35 35 65 34q68 0 68 -67 q0 -37 -41 -76q-168 -152 -383 -151q-117 0 -217 53q-70 35 -109 73.5t-88 124.5q-154 -246 -401 -245q-199 0 -330 157.5t-131 397.5zM233 545q0 -201 86.5 -321t231.5 -120q147 0 231 119t84 334q0 205 -83.5 319.5t-233.5 114.5q-145 0 -230.5 -119.5t-85.5 -326.5z M1020 606h627q0 82 -13.5 126t-46.5 97q-84 150 -254 150q-178 0 -256 -158q-20 -43 -32.5 -90t-24.5 -125z" />
<glyph unicode="&#x178;" horiz-adv-x="1007" d="M10 1427q0 63 68 64q20 0 36.5 -10.5t28.5 -28.5l361 -612l362 612q20 39 64 39q66 0 65 -64q0 -23 -8 -36l-412 -699v-637q0 -74 -71 -73q-72 0 -72 73v637l-409 699q-12 20 -13 36zM217 1733q0 39 28.5 67.5t69.5 28.5q39 0 66.5 -27.5t27.5 -68.5t-27.5 -68.5 t-68.5 -27.5q-39 0 -67.5 28.5t-28.5 67.5zM595 1733q0 39 27 67.5t66 28.5q41 0 70.5 -27.5t29.5 -70.5q0 -37 -28.5 -65.5t-69.5 -28.5t-68 26.5t-27 69.5z" />
<glyph unicode="&#x2c6;" horiz-adv-x="620" d="M-2 1239q0 59 47 76l223 88l41 14l43 -14l226 -84q45 -16 45 -78q0 -27 -25 -45t-57 -18l-25 6l-207 84l-211 -84q-4 -2 -22 -4q-33 0 -55.5 16t-22.5 43z" />
<glyph unicode="&#x2dc;" horiz-adv-x="573" d="M-4 1268q0 31 21.5 52t52.5 21l430 -2q33 0 54 -21.5t21 -51.5q0 -27 -22.5 -47.5t-54.5 -20.5l-426 2q-33 0 -54.5 19.5t-21.5 48.5z" />
<glyph unicode="&#x2000;" horiz-adv-x="943" />
<glyph unicode="&#x2001;" horiz-adv-x="1887" />
<glyph unicode="&#x2002;" horiz-adv-x="943" />
<glyph unicode="&#x2003;" horiz-adv-x="1887" />
<glyph unicode="&#x2004;" horiz-adv-x="629" />
<glyph unicode="&#x2005;" horiz-adv-x="471" />
<glyph unicode="&#x2006;" horiz-adv-x="314" />
<glyph unicode="&#x2007;" horiz-adv-x="314" />
<glyph unicode="&#x2008;" horiz-adv-x="235" />
<glyph unicode="&#x2009;" horiz-adv-x="377" />
<glyph unicode="&#x200a;" horiz-adv-x="104" />
<glyph unicode="&#x2010;" horiz-adv-x="710" d="M82 537q0 29 16.5 47t40.5 18h424q25 0 45.5 -18.5t20.5 -46.5q0 -29 -18.5 -47.5t-47.5 -18.5h-424q-25 0 -41 18.5t-16 47.5z" />
<glyph unicode="&#x2011;" horiz-adv-x="710" d="M82 537q0 29 16.5 47t40.5 18h424q25 0 45.5 -18.5t20.5 -46.5q0 -29 -18.5 -47.5t-47.5 -18.5h-424q-25 0 -41 18.5t-16 47.5z" />
<glyph unicode="&#x2012;" horiz-adv-x="710" d="M82 537q0 29 16.5 47t40.5 18h424q25 0 45.5 -18.5t20.5 -46.5q0 -29 -18.5 -47.5t-47.5 -18.5h-424q-25 0 -41 18.5t-16 47.5z" />
<glyph unicode="&#x2013;" d="M66 688q0 49 51 49h862q49 0 49 -49q0 -53 -49 -53h-864q-49 0 -49 53z" />
<glyph unicode="&#x2014;" horiz-adv-x="2039" d="M61 684v107h1917v-107h-1917z" />
<glyph unicode="&#x2018;" horiz-adv-x="360" d="M20 1171l5 23l120 268q20 41 76 41q27 0 45.5 -22.5t18.5 -57.5l-6 -24l-123 -269q-23 -41 -74 -40q-27 0 -44.5 23.5t-17.5 57.5z" />
<glyph unicode="&#x2019;" horiz-adv-x="360" d="M20 1171l5 23l120 268q20 41 76 41q27 0 45.5 -22.5t18.5 -57.5l-6 -24l-123 -269q-23 -41 -74 -40q-27 0 -44.5 23.5t-17.5 57.5z" />
<glyph unicode="&#x201a;" horiz-adv-x="362" d="M20 -186l5 22l120 268q18 41 76 41q27 0 45.5 -22.5t18.5 -56.5l-4 -23l-125 -268q-23 -43 -74 -43q-27 0 -44.5 23.5t-17.5 58.5z" />
<glyph unicode="&#x201c;" horiz-adv-x="632" d="M33 1171l4 23l123 268q16 41 76 41q27 0 45 -22.5t18 -57.5l-6 -24l-125 -269q-18 -41 -74 -40q-27 0 -44 23.5t-17 57.5zM291 1171l6 23l121 268q20 41 76 41q27 0 45 -22.5t18 -57.5l-6 -24l-123 -269q-23 -41 -74 -40q-27 0 -45 22.5t-18 58.5z" />
<glyph unicode="&#x201d;" horiz-adv-x="632" d="M33 1171l4 23l123 268q16 41 76 41q27 0 45 -22.5t18 -57.5l-6 -24l-125 -269q-18 -41 -74 -40q-27 0 -44 23.5t-17 57.5zM291 1171l6 23l121 268q20 41 76 41q27 0 45 -22.5t18 -57.5l-6 -24l-123 -269q-23 -41 -74 -40q-27 0 -45 22.5t-18 58.5z" />
<glyph unicode="&#x201e;" horiz-adv-x="620" d="M20 -186l5 22l120 268q18 41 76 41q27 0 45.5 -22.5t18.5 -56.5l-4 -23l-125 -268q-23 -43 -74 -43q-27 0 -44.5 23.5t-17.5 58.5zM279 -186l4 22l123 268q16 41 75 41q27 0 45.5 -22.5t18.5 -56.5l-4 -23l-127 -268q-18 -43 -74 -43q-27 0 -44 23.5t-17 58.5z" />
<glyph unicode="&#x2022;" horiz-adv-x="425" d="M121 535q0 37 26.5 63.5t63.5 26.5q41 0 67.5 -27t26.5 -70q0 -35 -27.5 -60.5t-64.5 -25.5q-39 0 -65.5 27t-26.5 66z" />
<glyph unicode="&#x2026;" horiz-adv-x="2039" d="M258 82q0 41 28.5 68.5t69.5 27.5q43 0 71 -27.5t28 -68.5q0 -43 -29 -70q-27 -29 -70 -28q-41 0 -69.5 28.5t-28.5 69.5zM940 82q0 41 28.5 68.5t69.5 27.5q43 0 71 -27.5t28 -68.5q0 -43 -29 -70q-27 -29 -70 -28q-41 0 -69.5 28.5t-28.5 69.5zM1608 82q0 41 28.5 69.5 t69.5 28.5t69.5 -28.5t28.5 -69.5t-28.5 -69.5t-69.5 -28.5t-69.5 28.5t-28.5 69.5z" />
<glyph unicode="&#x202f;" horiz-adv-x="377" />
<glyph unicode="&#x2039;" horiz-adv-x="491" d="M82 547q0 12 18 47l183 319q25 43 67 43q57 0 58 -59q0 -27 -15 -47l-184 -305l182 -307q18 -29 19 -48q0 -23 -18.5 -41t-45.5 -18q-37 0 -65 49l-170 305q-8 14 -25 52q-2 4 -4 10z" />
<glyph unicode="&#x203a;" horiz-adv-x="491" d="M82 897q0 23 19.5 40t41.5 17q39 0 68 -49l168 -305q14 -25 27 -51q2 -4 4 -10q0 -14 -21 -47l-180 -322q-25 -41 -68 -41q-57 0 -57 59q0 27 14 48l185 305l-183 307q-18 29 -18 49z" />
<glyph unicode="&#x205f;" horiz-adv-x="471" />
<glyph unicode="&#x2122;" horiz-adv-x="1634" d="M109 1382v93h440v-93l-170 2v-647h-103v647zM524 737l148 762h33l229 -504l12 -30l4 -11q12 -31 13 -69q0 14 3 30.5t11 40.5l6 15l10 24l230 504h32l148 -762h-105l-77 445l-4 26l-3 9q-2 20 -2 30t5 35l-9 -29l-10 -34l-8 -25l-4 -8l-211 -469h-23l-211 469l-6 12 l-6 21l-18 63q4 -33 4 -43q-2 -14 -2 -22l-2 -9l-4 -26l-78 -445h-105z" />
<glyph unicode="&#xe000;" horiz-adv-x="1116" d="M0 0v1116h1116v-1116h-1116z" />
</font>
</defs>
</svg>
